<svg viewBox="0 0 384 221.997" xmlns="http://www.w3.org/2000/svg" xmlns:xlink="http://www.w3.org/1999/xlink" width="384.000000" height="221.996918" fill="none" customFrame="#000000">
	<g id="Сочетание 4">
		<path id="Форма 3" d="M307.344 175.779C306.984 167.844 306.624 160.63 306.264 153.777C304.465 152.334 302.306 150.531 299.786 148.727C306.264 145.842 312.022 147.285 317.781 146.563C317.061 149.449 315.741 151.853 313.822 153.777C314.542 159.909 314.542 166.04 315.621 172.172C315.981 174.336 318.141 176.139 319.94 179.025C315.621 181.91 315.621 186.96 315.621 192.37C315.621 196.337 315.261 200.305 315.981 203.912C316.341 206.076 317.781 208.24 319.22 210.404C320.3 212.207 322.459 214.372 322.459 215.814C322.099 219.06 318.5 218.7 316.341 218.7C313.822 219.06 311.303 218.7 308.424 218.7C304.105 218.7 302.066 216.295 302.306 211.486C304.105 210.404 306.264 209.322 308.784 208.24C308.424 199.584 307.704 190.927 307.344 182.632C305.904 182.271 305.185 181.91 304.465 181.91C296.907 182.271 288.99 182.632 280.712 182.992L280.712 209.683C283.951 211.847 290.069 210.404 290.069 217.257C283.591 219.421 277.113 218.7 270.635 218.339C267.396 217.978 267.396 214.732 268.476 211.847C270.276 211.125 272.075 210.765 274.234 210.043L274.234 184.796C271.715 183.714 269.196 182.632 266.677 181.549C267.396 176.861 271.715 177.221 274.594 175.418L274.594 154.138C272.435 152.334 270.635 150.891 268.476 149.449C274.234 145.842 282.872 145.842 288.27 149.809C286.111 151.252 283.951 152.695 282.152 153.777C281.792 159.548 281.072 164.597 280.712 170.008C280.352 175.057 281.432 176.139 286.471 176.139C292.948 176.5 299.786 175.779 307.344 175.779L307.344 175.779Z" fill="rgb(0,0,0)" fill-rule="nonzero" />
		<path id="Форма 4" d="M118.043 210.368C119.483 203.876 121.282 197.744 122.722 190.891C118.403 189.809 115.524 189.088 112.285 188.366C111.565 184.76 113.724 184.038 116.244 184.038C121.522 183.798 124.401 181.033 124.881 175.743C125.241 171.414 125.241 166.725 126.321 162.758C127.4 157.708 127.76 153.02 122.722 149.413C131.719 148.331 139.996 146.167 148.993 150.495C146.474 151.577 144.315 152.659 141.436 154.102C142.875 163.479 144.315 173.218 145.754 182.235C149.353 185.12 154.392 181.153 156.911 185.842C155.112 190.531 150.073 188.727 146.114 190.891C146.834 197.744 147.914 204.597 148.634 211.811C151.513 212.893 154.032 213.975 156.551 214.696C157.271 218.303 155.112 219.024 152.952 219.024C148.634 219.385 144.315 219.385 139.636 219.385C137.837 219.385 135.318 218.303 134.598 216.86C133.518 213.975 136.397 213.975 138.557 213.253C138.917 212.893 139.276 212.532 140.356 211.811C139.636 206.04 138.917 199.908 138.197 193.777C137.837 191.252 136.397 189.448 133.518 189.448C130.639 189.448 130.279 191.613 129.919 193.416C129.2 198.105 128.12 203.154 127.4 207.843C126.68 212.893 123.801 216.139 119.483 218.664C115.884 220.828 112.285 220.467 109.406 217.582C107.247 215.057 105.447 211.45 104.367 208.204C104.008 206.761 105.087 204.597 106.167 200.99C109.406 206.04 111.925 209.286 114.084 212.532C115.884 211.45 116.963 210.729 118.043 210.368L118.043 210.368ZM136.397 162.397C135.678 162.397 134.958 162.397 133.878 162.037C132.439 168.168 131.719 174.66 132.439 180.792C132.798 184.399 135.678 183.678 138.557 181.874C137.837 175.382 137.117 168.89 136.397 162.397Z" fill="rgb(0,0,0)" fill-rule="nonzero" />
		<path id="Форма 5" d="M175.985 187.284C173.466 186.202 171.306 185.481 169.147 184.76C170.227 183.677 170.587 182.956 171.666 182.595C174.905 181.513 176.345 179.71 176.345 176.464L176.345 154.823C175.265 150.134 169.147 153.019 169.867 147.97C178.504 146.167 187.861 146.527 193.62 149.773C190.74 151.216 188.581 152.298 184.982 154.102L184.982 180.431C188.221 180.071 189.301 177.185 190.381 174.66C192.9 169.25 195.419 163.84 197.938 158.43C199.378 155.544 200.817 152.659 202.617 150.495C206.575 145.806 212.334 147.249 214.133 152.659C214.853 154.462 214.853 156.266 214.493 158.069C214.133 160.954 213.413 164.201 209.814 164.201C206.216 164.201 206.575 160.954 206.575 158.43C206.575 157.348 206.216 156.626 205.496 154.462C197.218 162.037 197.218 172.496 191.46 180.071C199.738 186.202 201.537 195.58 205.496 203.515C206.935 206.04 208.375 208.565 210.534 212.532C213.773 208.204 215.933 204.958 218.812 200.99C219.531 203.154 220.971 204.958 220.611 205.679C218.812 209.647 217.012 213.614 214.133 217.221C211.614 220.828 208.735 221.188 205.496 217.942C202.257 214.696 199.738 210.729 197.578 206.761C195.779 202.794 195.059 198.465 193.26 194.137C192.54 191.973 191.46 189.809 190.021 188.006C187.861 185.481 183.183 186.202 183.183 189.088C182.823 196.662 183.183 203.876 183.903 211.45C183.903 212.893 187.501 213.975 189.301 215.057C188.581 221.188 187.861 221.91 182.823 221.549C177.784 221.188 173.106 220.467 168.067 220.106C167.108 216.98 169.507 214.335 175.265 212.171C175.985 203.515 175.985 195.58 175.985 187.284L175.985 187.284Z" fill="rgb(0,0,0)" fill-rule="nonzero" />
		<path id="Форма 6" d="M56.8622 130.693C62.9803 119.512 61.9007 109.052 62.6204 96.4285C60.4611 98.9533 59.3814 99.6746 59.0215 100.757C57.582 105.806 56.1424 111.216 54.7029 116.627C53.9831 118.791 53.9831 121.316 52.5436 123.119C51.4639 124.922 49.3046 126.726 47.1453 126.726C45.3458 126.726 42.8266 125.283 41.7469 123.48C40.3074 121.316 39.5876 118.43 38.8678 115.545C37.4283 110.495 36.7085 105.446 35.269 100.396C34.5492 98.2319 33.8294 96.4285 32.7498 93.1823C28.4311 98.5926 30.5904 103.642 30.5904 107.97L30.5904 124.201C30.9503 126.004 37.0684 124.562 35.9887 129.972C29.8707 132.136 23.7526 131.054 17.2746 129.972C16.1949 124.922 21.2334 125.644 23.3927 122.398C23.7526 110.856 23.7526 98.5926 24.1124 86.3294C24.1124 82.0012 23.3927 78.0337 17.9944 76.591C22.313 74.7875 26.6317 75.5089 30.9503 75.8696C32.3899 76.2303 34.1893 78.755 34.9091 80.9191C37.7882 89.2148 39.9475 97.8712 42.8266 106.167C43.9063 109.774 45.7057 113.02 47.5051 117.709C48.9447 115.545 49.6645 114.463 50.0244 113.381C53.6232 102.921 56.8622 92.1003 60.1012 81.6405C62.6204 74.0662 64.7797 73.3448 73.4171 76.591C68.3786 80.5585 68.7385 85.608 68.7385 91.0182C68.7385 98.9533 68.3786 106.528 68.3786 114.463C68.3786 119.512 68.3786 124.922 74.1368 128.529C68.0187 132.857 62.9803 131.054 56.8622 130.693L56.8622 130.693Z" fill="rgb(0,0,0)" fill-rule="nonzero" />
		<path id="Форма 7" d="M49.3046 214.335C52.1837 213.614 54.343 213.253 57.2221 212.532L57.2221 187.284C56.5023 184.399 50.3843 185.842 51.8238 181.513C52.1837 180.071 55.0628 179.349 56.8622 178.628L56.8622 154.102C53.2634 152.418 50.8641 150.374 49.6645 147.97C51.104 147.609 52.5436 146.888 53.9831 146.888L84.2137 146.888C90.6917 146.888 92.1312 147.97 92.1312 154.462C92.1312 157.708 92.1312 161.315 91.7713 164.561C91.4114 166.004 89.9719 167.447 88.5323 168.168C87.8126 168.529 85.6532 166.725 85.2933 165.283C84.5736 163.119 84.5736 160.594 84.5736 158.43C84.2137 152.659 83.8538 151.937 78.4555 151.937C74.1368 151.937 69.8182 152.298 64.4199 152.659L64.4199 179.71C69.8182 180.431 74.8566 180.792 79.5351 181.874C89.2521 183.677 95.0103 189.809 95.7301 198.826C96.4499 208.565 91.7713 215.057 82.0544 219.024C75.2165 221.549 68.0187 222.27 60.821 221.91C55.7826 221.188 52.1837 219.385 49.3046 214.335ZM66.5792 213.614C74.1368 213.975 80.9747 215.057 85.2934 208.565C88.5323 203.515 88.1724 195.58 84.9335 191.612C80.9747 186.202 73.0572 184.399 64.7798 186.924C65.4995 195.219 66.2193 203.876 66.5792 213.614Z" fill="rgb(0,0,0)" fill-rule="nonzero" />
		<path id="Форма 8" d="M218.092 21.7672C217.372 19.6031 217.012 17.439 216.292 14.5535C211.254 18.1604 209.095 23.2099 206.935 28.2595C206.575 28.9808 206.935 30.4236 207.295 31.1449C209.455 36.5552 211.614 42.3261 213.773 47.7363C215.213 50.9825 215.933 54.95 220.251 56.3927C222.051 54.2286 223.85 52.0645 225.649 49.9004C229.608 52.4252 228.888 54.95 226.729 57.8354C223.85 61.4422 219.531 62.5243 216.292 59.9995C213.773 57.8354 211.254 54.5893 209.814 51.7038C208.015 48.4577 207.295 44.4902 206.216 40.5227C205.496 37.9979 204.416 35.4731 200.457 36.5552C200.817 43.7688 197.218 51.7038 206.575 57.1141C199.738 60.3602 193.619 59.2781 187.861 58.9175C186.422 54.2286 191.82 55.3106 193.26 51.3431L193.26 34.0304C191.46 35.1124 189.301 35.8338 188.581 36.9158C186.782 40.162 185.702 43.4081 183.903 46.6543C182.463 49.5397 181.023 52.7859 179.224 55.6713C177.065 58.9175 173.826 60.7209 169.867 59.2781C165.548 57.4747 165.188 53.8679 165.548 48.8184C168.787 50.9824 171.306 52.4252 174.545 54.5893C175.985 51.3431 177.425 48.8184 178.504 45.9329C180.664 41.244 182.463 36.5552 184.262 31.8663C184.622 30.7842 185.342 29.7022 184.982 28.9808C182.103 23.5706 181.023 17.439 175.985 12.0288C174.905 14.9142 174.545 17.0783 173.466 18.521C172.746 19.9638 170.947 21.7672 169.867 21.4065C166.988 21.0458 167.708 18.521 168.427 16.3569C169.147 14.5535 170.227 12.3894 171.306 10.9467C174.186 7.33988 176.705 7.33988 179.584 10.586C182.463 13.8322 184.982 17.7997 187.501 22.1279C188.941 24.6526 189.301 27.5381 193.26 27.8988C195.779 21.0458 193.979 14.9142 187.861 9.1433C194.699 8.78261 199.738 8.42193 206.935 8.06125C199.738 13.8322 199.738 20.6851 200.817 28.2595C204.416 26.0954 204.776 22.4885 206.575 19.6031C208.735 16.3569 211.254 12.7501 214.133 9.86466C214.853 9.14329 218.452 9.14329 219.531 10.2253C221.331 12.0288 223.13 14.9142 223.49 17.0783C223.85 20.3244 222.051 23.2099 218.092 21.7672L218.092 21.7672Z" fill="rgb(0,0,0)" fill-rule="nonzero" />
		<path id="Форма 9" d="M238.246 179.025C240.765 179.385 242.924 179.385 245.083 179.746C246.523 177.582 247.963 175.779 250.122 172.532C252.641 178.664 251.921 183.714 250.842 189.124C246.523 187.681 243.284 181.189 238.605 186.238L238.605 211.486C250.482 213.289 250.842 213.65 254.8 204.994C260.199 206.797 260.559 208.961 258.039 219.06C249.402 221.946 240.405 221.225 231.408 220.864C227.809 220.864 226.729 218.339 226.369 214.732C228.169 213.65 229.968 212.207 231.408 211.125L231.408 186.238C228.169 185.156 225.649 184.435 223.13 183.714C223.85 178.664 228.169 180.467 231.048 178.303L231.048 155.941C231.048 154.859 229.608 154.138 228.888 153.056C228.169 151.974 227.449 151.252 225.649 149.088C237.166 146.203 247.962 148.006 259.119 148.006C259.479 153.056 259.839 157.384 260.199 162.073C252.281 162.433 256.6 155.22 252.281 153.056L238.246 153.056L238.246 179.025L238.246 179.025Z" fill="rgb(0,0,0)" fill-rule="nonzero" />
		<path id="Форма 10" d="M288.27 131.018L271.355 131.018C278.913 120.558 274.234 108.656 276.754 97.4744C277.113 96.7531 276.394 95.671 276.034 94.589C272.435 95.3103 272.075 98.1958 270.995 100.36C266.317 109.377 261.998 118.394 256.96 127.411C254.081 132.461 247.243 132.821 241.844 129.214C241.844 128.854 241.844 128.493 242.204 128.493C248.682 126.329 249.402 121.279 249.402 115.509C249.402 105.77 249.762 95.671 249.762 85.9326C249.762 83.0471 247.962 80.5224 246.883 77.2762C251.921 76.9155 257.32 75.8335 263.438 78.719C257.32 82.3258 258.039 87.3753 258.039 92.4249C258.039 96.3924 257.32 100.721 256.96 104.688C256.96 106.852 257.32 109.016 257.32 111.18C258.039 111.18 258.759 111.541 259.119 111.541C260.199 109.377 261.638 107.213 262.718 105.049C266.677 97.1137 269.916 89.1787 274.234 81.2437C277.113 75.8335 280.712 75.4728 286.47 80.1617C280.352 84.1292 281.432 89.9001 281.792 96.0317C282.152 101.803 281.792 107.934 281.432 114.066C282.152 119.837 280.712 125.968 288.27 131.018L288.27 131.018Z" fill="rgb(0,0,0)" fill-rule="nonzero" />
		<path id="Форма 11" d="M115.164 50.9824C115.164 40.162 114.804 29.7022 115.164 19.2424C115.524 14.5535 112.285 12.3894 109.046 9.14329C114.804 7.33988 119.843 8.06125 124.881 8.42193C121.282 20.6851 123.082 32.5876 123.082 45.2115C127.4 43.7688 128.12 40.5227 129.2 37.9979C133.158 30.0629 137.117 21.7672 141.436 13.8322C145.395 6.9792 150.793 5.89715 159.07 10.2253C151.513 12.7501 151.873 18.521 152.232 24.6526C152.592 33.6697 152.232 42.6867 152.232 51.7038C154.752 53.1465 156.911 54.5893 160.15 56.3927C153.672 61.0816 147.554 59.9995 141.076 58.9175C141.436 57.114 141.076 55.6713 141.436 55.3106C146.114 52.4252 146.114 48.097 145.754 43.4081C145.395 37.2765 146.114 31.1449 146.114 24.6526C146.114 22.1279 145.754 19.6031 145.754 17.439C145.035 17.439 144.675 17.0783 143.955 17.0783C142.515 19.6031 141.076 21.7672 139.996 24.292C135.318 33.6697 130.639 43.4081 125.961 52.7859C122.362 59.9995 116.963 61.4422 108.686 57.4747C110.366 55.3106 112.525 53.1465 115.164 50.9824L115.164 50.9824Z" fill="rgb(0,0,0)" fill-rule="nonzero" />
		<path id="Форма 12" d="M262.358 11.9927C268.836 10.1893 273.874 8.02519 279.633 11.9927C273.155 17.7636 275.674 24.9773 275.314 31.8302C277.473 33.9943 279.633 35.7977 282.872 38.6832C278.913 39.7652 276.034 40.1259 273.515 40.8473C272.795 49.5037 271.355 51.3071 279.993 58.5207C274.594 62.4882 269.196 59.9634 262.718 58.8814C268.836 53.4712 267.397 47.3396 267.037 40.4866C259.839 40.1259 253.001 39.7652 245.443 39.4046C245.083 44.4541 244.724 48.7823 244.364 52.7498C246.883 54.1925 248.682 55.6353 252.281 57.7994C245.083 61.4062 239.325 61.0455 231.768 58.8814C238.965 53.8318 238.605 47.7002 237.886 40.8473C236.446 38.3225 231.408 39.7652 231.768 35.0764C232.127 34.7157 232.127 33.9943 232.487 33.9943C234.647 32.1909 238.965 33.9943 239.325 30.0268C239.325 24.9773 241.125 19.567 237.526 15.2388C236.806 14.1568 236.086 13.4354 235.007 11.632C240.765 10.55 246.163 8.38587 253.001 12.3534C243.284 17.0422 244.364 24.6166 245.803 32.5516L268.476 32.5516C268.836 25.3379 269.916 18.485 262.358 11.9927L262.358 11.9927Z" fill="rgb(0,0,0)" fill-rule="nonzero" />
		<path id="Форма 13" d="M50.3843 32.1909C50.7441 27.1414 54.7029 28.9448 56.8622 27.1414C57.2221 20.6491 59.7413 13.7961 51.4639 8.74656C56.5023 5.8611 61.5408 8.38588 66.2193 7.30383C65.1396 11.2713 64.06 14.1568 64.06 17.4029C63.7001 20.6491 64.06 23.8952 64.06 28.2234L85.2933 28.2234C88.1724 20.2884 88.1724 14.8782 80.9747 9.46793C85.6532 6.94315 90.6917 6.94315 98.2493 9.10725C91.4114 13.7961 94.2905 19.9277 94.2905 26.0593C96.4499 27.1414 98.2493 28.2234 100.769 29.6661C98.6092 31.8302 96.8097 33.273 94.6504 35.4371C96.09 42.6507 93.2109 50.9464 99.6888 58.16C93.2109 59.9635 87.8125 60.6848 82.0543 56.3566C88.1724 51.3071 86.7329 44.8148 87.0928 38.6832C87.0928 34.7157 85.2933 32.9123 81.6945 32.9123C75.9363 32.9123 70.5379 33.6336 64.4199 33.6336C64.4199 42.6507 61.1809 51.6678 72.3374 57.078C65.4995 58.5207 59.3814 61.7669 53.6232 56.7173C56.5023 52.6296 57.702 45.0553 57.2221 33.9943C55.0628 33.6336 52.9035 32.9123 50.3842 32.1909L50.3843 32.1909Z" fill="rgb(0,0,0)" fill-rule="nonzero" />
		<path id="Форма 14" d="M326.778 129.972C333.616 123.84 332.896 116.987 331.097 109.052L310.223 109.052C306.624 117.348 308.064 123.48 315.262 130.333C309.503 132.857 303.745 131.415 297.987 131.415C298.227 128.77 299.906 126.606 303.025 124.922L303.025 110.856C300.866 109.413 298.347 108.331 294.748 106.167C298.347 104.724 300.506 103.642 302.665 102.56L302.665 85.608C302.665 82.3619 295.468 83.8046 297.987 78.3944C303.025 77.3123 307.704 77.673 313.822 79.4764C310.943 81.6405 309.143 83.0832 307.344 84.8866C307.704 90.6576 308.064 96.4285 308.783 102.921C316.341 105.085 323.539 102.921 331.816 102.56C330.377 94.6251 334.336 86.3294 326.418 79.8371C332.176 76.5909 337.574 79.1157 343.333 78.0337C339.374 82.3619 337.574 86.3294 337.934 92.1003C338.294 97.1498 337.934 102.199 345.492 104.003C342.613 105.806 340.813 107.249 338.654 108.692C339.014 113.741 339.014 118.791 339.374 124.562C340.094 127.086 345.492 125.644 344.052 130.693C338.654 132.857 332.896 131.775 326.778 129.972L326.778 129.972Z" fill="rgb(0,0,0)" fill-rule="nonzero" />
		<path id="Форма 15" d="M2.51921 54.95C7.91753 52.7859 9.35708 49.5397 8.27741 44.4902C7.55764 40.8833 8.27741 37.2765 8.27741 33.309C5.7582 32.5876 3.59888 31.8663 0 30.7842C3.23899 28.9808 5.03843 27.8988 7.55764 26.456L7.55764 13.4715C5.39831 12.3894 3.59888 10.9467 1.07966 9.86465C6.47798 5.53647 12.956 4.45442 20.5136 7.33988C12.2362 12.3894 14.0356 19.9638 15.1153 28.6201C23.0328 22.1279 22.6729 12.0288 29.8707 6.9792C37.0684 10.9467 38.508 14.1928 34.1893 21.4065C32.7498 18.1604 31.6701 15.2749 30.5904 12.0288C25.9119 13.8322 26.6317 18.1604 24.8322 21.0458C21.2334 26.8167 21.9531 31.5056 26.2718 36.5552C28.4311 38.7192 29.5108 41.9654 31.3102 44.4902C35.9888 50.9824 37.0684 50.9825 43.5464 46.6543C44.9859 51.3431 43.9063 53.8679 39.5876 56.032C35.6289 58.1961 31.6701 57.4747 29.5108 53.8679C26.2718 49.179 24.1125 43.7688 21.2334 39.0799C20.1537 36.9158 18.3543 35.1124 16.9147 33.309C16.1949 33.6697 15.835 33.6697 15.1153 34.0304L15.1153 52.4252C17.9944 53.8679 20.8735 54.95 23.7526 56.3927C19.4339 62.5243 13.6757 60.3602 8.99718 60.7209C6.11808 59.6388 6.11808 59.2781 2.51921 54.95L2.51921 54.95Z" fill="rgb(0,0,0)" fill-rule="nonzero" />
		<path id="Форма 16" d="M84.2137 117.709C86.373 119.873 87.4527 121.676 89.2521 122.758C91.7713 124.922 94.2905 124.201 95.3702 120.955C96.4499 118.43 96.8097 115.545 97.1696 113.741C95.0103 109.774 88.5323 113.02 89.2521 107.249C92.851 106.167 97.1696 106.528 98.9691 104.363C100.769 102.199 100.409 98.2318 101.128 94.9857C101.848 91.7395 102.928 88.4934 104.007 85.2473C101.848 84.1652 99.6888 83.0832 96.4499 81.2797C98.2493 79.837 99.329 77.6729 100.409 77.6729C106.167 77.3122 112.645 75.1481 118.763 79.837C116.963 81.6404 114.804 83.0832 114.084 84.8866C113.365 87.0507 114.084 89.5754 114.084 91.7395L114.084 96.4284C114.324 102.44 117.083 106.888 122.362 109.774C120.562 110.856 118.763 111.938 116.963 113.38C116.963 116.987 117.323 120.594 117.683 124.562C120.202 125.644 122.722 126.726 124.881 127.808C121.642 131.775 118.043 132.497 107.606 129.972C111.925 126.004 112.645 120.955 110.845 116.266C110.126 114.823 108.686 112.659 106.887 112.298C104.367 111.577 102.928 113.38 101.848 115.905C100.409 119.873 98.9691 123.48 96.8098 126.726C94.6504 129.611 91.4114 130.333 87.8126 128.168C83.8538 126.365 82.7741 123.84 84.2137 117.709L84.2137 117.709ZM108.686 96.4284C107.966 96.4284 107.246 96.0677 106.527 96.0677C105.807 98.2318 104.727 100.757 104.367 102.921C104.367 104.003 105.447 105.806 106.167 106.167C108.326 106.888 109.406 105.085 109.046 102.921C109.046 100.757 108.686 98.5925 108.686 96.4284L108.686 96.4284Z" fill="rgb(0,0,0)" fill-rule="nonzero" />
		<path id="Форма 17" d="M346.572 60.3602C351.61 56.032 351.25 50.6218 350.53 45.2116C350.171 38.7193 350.171 32.227 350.171 25.7347C350.171 20.6851 350.89 15.6356 345.132 11.6681C350.89 8.78263 355.209 10.2254 361.327 11.6681C355.209 14.5535 355.929 19.2424 355.929 23.9313L355.929 45.9329C359.888 43.0475 360.607 39.4406 362.047 35.8338C364.926 29.3415 367.085 22.1279 370.684 15.9963C373.923 9.86467 376.802 9.50399 384 12.0288C379.321 14.9142 379.681 18.1604 380.041 22.8492C381.121 30.4236 380.041 38.3586 380.401 45.9329C380.761 50.2611 381.841 54.95 382.56 59.9995L374.283 59.9995C374.643 54.5893 375.363 49.1791 375.363 43.7688C375.723 36.9159 375.723 29.7022 375.723 22.8492C375.723 21.7672 375.363 20.3245 375.003 17.439C372.844 19.9638 371.404 21.4065 371.044 23.2099C367.445 32.9483 363.846 42.6868 360.247 52.4252C357.728 60.7209 356.289 61.8029 346.572 60.3602L346.572 60.3602Z" fill="rgb(0,0,0)" fill-rule="nonzero" />
		<path id="Форма 18" d="M176.345 77.2762C183.183 77.2762 190.021 75.8334 197.218 78.3582C196.859 83.7684 192.54 81.965 190.381 84.4898L190.381 103.967C192.54 107.934 198.298 104.327 199.378 110.82C196.499 111.18 193.979 111.902 190.381 112.623C190.74 115.869 191.1 119.476 191.1 121.279C192.9 125.608 198.298 123.443 197.938 128.854C193.26 131.018 188.221 129.936 182.103 129.214C184.982 123.804 189.301 118.755 186.062 112.262C183.183 110.82 181.743 112.623 181.023 114.787C179.584 118.394 178.864 122.361 177.065 125.608C174.186 131.378 169.867 132.1 165.548 127.411C161.59 123.443 160.87 120.558 163.749 115.508C166.268 118.394 168.427 120.919 170.947 123.443C175.265 120.919 177.065 117.673 176.345 112.984C173.466 112.262 170.587 111.18 167.708 110.459C168.427 105.77 171.666 106.131 174.545 106.491C178.144 106.852 179.584 105.049 179.944 101.442C180.304 95.6709 181.023 90.2607 181.743 84.4898C180.664 81.6043 174.545 82.6864 176.345 77.2762L176.345 77.2762ZM183.543 105.77C187.861 102.163 187.861 101.081 184.982 96.0316C182.103 99.2778 181.743 102.163 183.543 105.77Z" fill="rgb(0,0,0)" fill-rule="nonzero" />
		<path id="Форма 19" d="M288.63 12.3534C294.748 11.2713 300.506 10.55 307.344 12.7141C298.707 17.4029 298.707 24.2559 299.426 31.8302C301.946 32.5516 304.465 32.9123 306.984 33.6336C314.542 35.7977 318.141 40.8473 317.421 48.7823C317.061 55.2746 314.542 57.7994 308.424 59.6028C301.946 61.4062 295.108 61.0455 287.91 59.6028C291.869 55.9959 292.948 52.0284 292.948 47.3396C292.948 42.6507 292.948 38.6832 287.91 35.4371C291.869 32.5516 294.388 29.3055 294.028 23.8952C293.668 19.2063 292.229 15.9602 288.63 12.3534L288.63 12.3534ZM300.506 56.3566C308.784 54.1925 310.943 52.3891 310.943 48.4216C310.583 43.7327 307.704 41.208 300.146 40.4866C299.426 45.5362 297.987 50.5857 300.506 56.3566L300.506 56.3566Z" fill="rgb(0,0,0)" fill-rule="nonzero" />
		<path id="Форма 20" d="M208.735 115.545C210.174 117.348 211.614 118.791 213.053 120.594C217.732 126.726 222.77 127.086 227.449 120.955C233.207 113.741 231.768 105.085 223.85 100.396C223.13 100.035 222.77 99.6746 221.691 98.5925C227.809 94.2643 229.968 88.8541 227.449 81.6404C223.85 80.1977 219.891 79.4763 217.732 82.7225C215.933 84.8866 216.292 88.8541 215.573 92.1002C209.814 89.9361 208.735 87.0507 211.614 82.3618C215.213 76.5909 222.411 74.0661 227.449 76.2302C233.207 79.1156 235.007 85.9686 232.487 92.8216C232.128 93.9036 231.768 94.625 231.048 96.0677C238.965 101.478 240.405 109.413 238.605 118.069C237.166 124.562 231.768 129.972 226.009 130.333C216.652 131.054 210.534 128.168 208.015 120.955C207.655 119.512 207.655 118.069 207.655 116.627C207.655 116.266 208.375 115.905 208.735 115.545L208.735 115.545Z" fill="rgb(0,0,0)" fill-rule="nonzero" />
		<path id="Форма 21" d="M159.79 92.1003C157.991 80.1977 157.271 79.8371 144.315 82.7225L144.315 96.7891C144.315 103.281 144.675 109.774 144.675 116.266C144.675 120.955 144.315 125.644 148.634 129.611L135.318 129.611C140.356 120.594 137.477 111.216 137.837 102.199C138.197 95.7071 137.837 89.2148 137.837 82.7225C135.678 81.2798 133.878 80.1977 132.079 79.1157C132.439 78.0336 132.799 77.3123 132.799 77.3123C140.716 76.9516 148.634 76.5909 156.911 76.9516C160.51 76.9516 162.669 79.4764 163.389 82.7225C164.109 86.3293 164.109 89.9361 159.79 92.1003Z" fill="rgb(0,0,0)" fill-rule="nonzero" />
		<path id="Форма 22" d="M335.775 11.6681C328.937 19.9638 329.297 27.8988 330.737 36.1945C331.456 39.8013 331.097 43.7688 331.097 47.7363C331.097 52.0645 330.017 56.7534 336.135 58.9175C335.775 59.2782 335.055 59.6389 334.695 59.9995L321.02 59.9995C326.778 55.3107 324.978 49.1791 324.619 43.4081C324.619 38.3586 324.619 33.6697 324.259 28.6202C323.899 22.8492 324.978 16.7176 320.3 11.3074C325.338 11.6681 329.657 11.6681 335.775 11.6681L335.775 11.6681Z" fill="rgb(0,0,0)" fill-rule="nonzero" />
		<path id="Форма 23" d="M359.168 1.17222C364.206 0.0901705 368.165 -1.35256 371.764 2.61495C366.366 5.86109 363.846 5.50041 359.168 1.17222Z" fill="rgb(0,0,0)" fill-rule="nonzero" />
		<path id="Форма 24" d="M136.397 162.433C137.117 168.926 137.837 175.418 138.557 181.91C135.678 183.714 132.799 184.435 132.439 180.828C132.079 174.696 132.439 168.204 133.878 162.073C134.958 162.433 135.678 162.433 136.397 162.433Z" fill="rgb(255,255,255)" fill-rule="nonzero" />
		<path id="Форма 25" d="M66.5792 213.65C65.8594 204.272 65.4995 195.616 64.7798 186.96C73.0572 184.435 80.6148 186.238 84.9335 191.649C88.1724 195.616 88.5323 203.551 85.2934 208.601C80.9747 215.093 74.4967 213.65 66.5792 213.65Z" fill="rgb(255,255,255)" fill-rule="nonzero" />
		<path id="Форма 26" d="M108.686 96.4284C109.046 98.5925 109.406 100.757 109.406 102.921C109.406 105.085 108.686 106.527 106.527 106.167C105.447 105.806 104.367 104.003 104.727 102.921C105.087 100.757 106.167 98.2318 106.887 96.0677C107.246 96.0677 107.966 96.4284 108.686 96.4284L108.686 96.4284Z" fill="rgb(255,255,255)" fill-rule="nonzero" />
		<path id="Форма 27" d="M183.543 105.77C181.743 102.163 182.463 98.9171 184.982 96.0317C187.861 101.442 187.861 102.524 183.543 105.77Z" fill="rgb(255,255,255)" fill-rule="nonzero" />
		<path id="Форма 28" d="M300.506 56.3927C298.347 50.6218 299.426 45.5722 300.146 40.5227C307.704 41.244 310.943 43.7688 310.943 48.4577C310.943 52.4252 308.784 54.2286 300.506 56.3927L300.506 56.3927Z" fill="rgb(255,255,255)" fill-rule="nonzero" />
	</g>
</svg>
