<svg viewBox="0 0 220 380" xmlns="http://www.w3.org/2000/svg" xmlns:xlink="http://www.w3.org/1999/xlink" width="220.000015" height="380.000000" fill="none" customFrame="#000000">
	<path id="маяк" d="M100.435 380C108.406 378.941 116.643 379.47 124.614 378.146C131.787 376.822 139.227 376.028 146.401 374.704C154.372 373.38 162.077 372.585 170.048 371.791C174.3 371.526 178.285 370.467 182.271 369.937C183.333 369.672 184.396 369.408 185.459 369.143C185.99 368.613 186.787 368.084 187.319 367.289L187.585 367.289C187.585 367.554 187.85 367.819 187.85 367.819L188.116 368.084C189.179 367.819 190.242 367.554 191.304 367.289C192.899 366.76 194.758 366.23 196.353 365.436C197.681 364.906 198.744 364.376 200.072 364.111C200.87 363.582 201.667 363.052 202.729 362.523C204.855 361.199 207.246 359.875 209.372 359.08C211.498 357.226 213.357 355.638 215.749 354.314C217.077 353.519 218.672 352.725 219.734 351.401C219.734 350.077 220 348.488 220 347.164L220 346.634C217.609 335.777 210.169 328.362 199.275 325.714C193.961 324.655 191.836 322.272 190.242 318.035C190.242 317.505 189.976 316.976 189.71 316.446C184.396 300.557 178.816 284.934 173.502 269.31C168.986 256.599 165 243.888 160.749 231.178C158.092 221.909 155.169 212.906 152.246 203.902C150.386 198.341 147.729 192.78 146.135 187.219C144.275 180.864 142.681 174.244 141.087 167.624C140.024 162.857 138.961 158.091 137.367 153.324C135.773 148.028 134.179 142.467 132.85 137.171C132.585 136.376 133.116 135.317 133.116 134.258C133.913 127.373 138.696 121.812 138.43 114.397C138.43 114.132 138.696 113.868 138.696 113.868C142.15 110.16 140.821 105.923 140.821 101.686C140.821 99.3031 139.227 96.3902 142.681 95.0662C142.681 94.8014 142.947 94.2718 142.947 94.0069C143.213 90.2996 142.947 86.3275 138.696 84.4738C136.039 83.4146 133.116 82.6202 130.459 81.561C128.333 81.0313 125.942 81.0313 123.551 80.7665C123.551 77.324 123.551 74.1463 127.005 72.2927C128.865 71.2334 129.396 69.9094 129.396 67.7909C129.396 62.7596 129.928 57.4634 129.396 52.432C129.13 48.1951 130.193 45.8118 134.179 44.4878C134.976 44.223 135.773 43.4286 136.039 42.8989C136.57 41.8397 137.101 39.986 136.836 39.1916C134.179 32.5714 130.99 25.9512 128.333 19.331C127.271 19.331 125.676 19.331 125.145 18.8014C122.754 14.8293 119.565 11.1219 120.894 5.82578C121.425 3.70732 121.425 1.58885 119.565 0C118.237 3.44251 116.377 6.3554 115.048 9.79791C114.251 11.6516 113.986 14.0348 112.923 15.8885C111.063 19.5958 108.672 22.7735 107.077 26.4808C105.217 30.453 103.623 34.9547 102.029 38.662C100.435 42.1045 100.7 43.1638 104.155 44.223C106.28 44.7526 106.546 45.8118 106.546 47.9303C106.28 54.8153 106.28 61.4355 106.546 68.5853C106.546 69.9094 107.343 72.0278 108.406 73.3519C110.266 76.2648 111.594 78.6481 111.594 81.8258C104.952 81.561 99.372 82.885 94.5894 86.8571C90.0725 90.5644 90.3382 96.1254 95.1208 99.0383C98.5749 100.892 100.7 103.805 100.169 108.307C99.6377 111.219 99.6377 114.132 99.9034 117.045C100.169 119.164 99.6377 121.017 96.715 121.282C97.2464 123.401 97.7778 125.519 97.7778 127.638C98.0435 129.491 98.0435 131.875 97.5121 133.728C96.715 136.906 95.3865 139.819 93.7923 142.996C86.6184 160.209 78.913 177.157 72.2705 194.634C64.0338 216.878 56.5942 239.916 48.3575 262.425C45.7005 270.369 44.9034 279.108 40.3865 286.523C40.1208 286.787 40.1208 287.052 40.1208 287.317C38.5266 292.878 36.9324 298.704 35.3382 304.265C33.4783 310.62 31.087 316.711 28.9614 322.801C28.6957 323.861 27.1015 324.655 25.5072 324.92C15.942 326.509 7.97102 330.746 3.98551 340.014C1.8599 345.045 0.797101 350.077 0 355.373C0.797101 356.697 1.8599 357.756 3.18841 359.345C7.43961 363.582 12.7536 366.76 18.599 369.408C19.1304 369.672 19.6618 369.937 20.1932 369.937C19.9275 369.408 19.6618 368.613 19.3961 367.554C19.3961 367.024 19.1304 366.495 19.1304 365.7C22.3188 367.819 24.7101 369.937 27.3671 371.791L25.2415 371.791C27.1014 372.321 28.9614 372.85 30.8213 373.645C35.8696 374.704 41.1836 375.763 46.2319 377.087C46.7633 377.087 47.029 376.822 47.5604 376.822C51.0145 376.822 54.4686 376.822 57.9227 377.352C57.1256 377.087 56.5942 376.557 55.7971 376.028C55.2657 375.763 54.7343 375.498 54.4686 375.233C55.2657 372.85 56.3285 372.32 58.7198 374.174C59.7826 374.969 61.1111 375.233 62.971 376.028C62.1739 377.087 61.6425 377.617 61.1111 377.881C61.9082 378.146 62.971 378.411 63.7681 378.676C64.5652 378.146 65.8937 377.617 67.2222 377.617C75.4589 377.882 83.6956 379.206 92.1981 379.47C94.5894 379.206 97.5121 379.47 100.435 380L100.435 380ZM197.947 345.045C196.618 348.488 193.961 351.136 191.304 350.871C191.039 350.871 190.507 350.871 190.242 350.606C192.899 348.488 195.29 346.899 197.947 345.045L197.947 345.045ZM99.1063 339.484C100.701 337.631 102.56 335.247 105.483 335.777C104.42 338.69 101.498 338.955 99.1063 339.484ZM99.372 314.328C99.6377 314.063 100.169 313.798 100.435 313.533C100.966 313.003 101.232 312.739 102.029 312.474C102.56 312.209 103.358 313.268 105.217 314.063C103.623 315.122 102.826 316.181 101.763 316.181C100.966 316.181 100.169 315.122 99.372 314.328ZM109.203 363.052C108.14 362.258 107.077 361.199 105.749 360.139L105.483 359.875C106.015 359.345 107.077 358.55 107.343 358.55C108.406 359.08 109.203 359.875 110.797 360.934C110 362.258 108.937 363.052 109.203 363.052L109.203 363.052ZM130.459 352.46C130.459 352.195 130.193 351.93 130.193 351.665C130.99 350.606 131.787 349.282 134.179 351.401C133.116 351.93 131.522 352.195 130.459 352.46L130.459 352.46ZM159.42 368.613C159.155 368.613 159.155 368.878 158.889 368.878C158.092 369.408 157.295 369.672 156.232 369.937C154.638 370.467 153.044 370.732 151.449 370.996C146.667 372.056 141.618 372.85 137.101 374.174C136.836 374.174 136.57 374.174 136.039 373.38C136.304 373.38 136.57 373.115 136.57 373.115C138.696 372.585 141.087 371.526 143.478 370.996C147.995 369.937 152.512 369.143 156.763 367.819C157.029 367.819 157.295 367.554 157.56 367.554C158.623 367.024 158.623 366.23 157.295 365.435C157.56 365.171 157.826 365.171 157.826 365.171L158.092 365.171C158.092 365.171 158.358 364.906 158.623 364.906C159.952 364.641 161.015 364.641 162.609 364.641C161.28 365.965 160.749 368.083 159.42 368.613L159.42 368.613ZM138.961 100.627C138.696 109.366 134.976 117.575 134.444 126.314L133.116 126.314L133.116 115.986C133.116 112.544 133.116 109.101 133.382 105.659C133.647 103.805 136.039 101.951 137.899 100.098C137.899 100.362 138.696 100.362 138.961 100.627ZM131.787 96.6551L131.787 95.5959C133.382 95.5959 135.242 95.3311 136.836 95.3311L137.101 95.3311L137.101 96.6551C135.507 96.9199 133.647 96.9199 132.053 97.1847L131.787 97.1847L131.787 96.6551ZM112.923 63.5541C114.251 59.8467 115.314 56.1394 116.908 52.1673C117.174 51.6377 117.44 51.1081 117.705 50.8433C117.971 50.3136 118.502 49.784 118.768 49.784C120.628 49.5192 122.754 49.2544 124.348 49.5192C124.879 49.784 125.145 51.9025 125.145 53.2265L125.145 59.8467C125.145 62.23 125.411 65.1429 125.411 67.2614C125.411 69.115 124.348 70.7039 123.285 71.7631C121.425 73.6168 118.237 73.8816 115.314 72.2927C112.657 70.1743 111.86 66.4669 112.923 63.5541L112.923 63.5541ZM112.923 108.042C112.923 107.247 113.454 105.923 113.986 105.659C115.048 105.394 116.377 105.394 117.705 105.923C117.705 105.923 117.705 106.188 117.971 106.188C118.502 106.453 118.237 108.042 118.237 109.101C117.44 117.84 116.377 126.314 115.048 135.317C114.783 136.906 114.517 138.495 112.923 138.23C112.391 138.23 111.86 137.436 111.329 136.641C111.063 136.376 110.797 136.112 110.531 135.582C110.797 135.582 111.063 135.582 111.329 135.317C111.594 135.317 111.594 135.052 111.86 135.052C112.391 127.108 112.657 119.164 112.923 111.22C112.923 110.16 112.657 109.101 112.923 108.042L112.923 108.042ZM97.5121 93.4774L97.5121 92.9478C97.2464 92.4182 97.5121 91.6237 97.7778 91.0941C97.7778 90.8293 99.1063 90.8293 99.372 91.0941C100.966 93.4774 103.358 95.0662 106.015 95.8607C106.546 96.1255 107.343 96.3903 107.874 96.6551C109.734 97.1847 111.86 97.7143 114.251 98.5088C113.72 99.0384 113.188 99.3032 112.923 99.568C112.126 100.362 111.594 100.892 110.797 100.892C109.734 101.157 108.14 100.892 107.609 100.362C106.28 97.1847 103.092 96.9199 100.701 95.5959C99.9034 95.0662 98.5749 94.2718 97.5121 93.4774ZM94.058 179.275C94.3237 177.951 94.3237 176.098 94.5894 174.774C95.3865 169.477 95.9179 164.181 96.715 159.15C96.9807 157.296 97.2464 155.178 97.2464 153.059C96.9807 150.146 98.3092 149.087 100.966 149.087C102.295 149.087 103.358 148.293 104.686 147.763C104.155 146.439 103.358 145.38 102.826 143.791C102.295 142.997 102.029 142.202 101.498 141.408C102.295 141.143 103.092 140.878 103.623 140.878L104.42 140.878C106.28 141.408 108.14 141.937 110.266 142.202C116.111 142.997 121.957 142.732 127.536 141.673C128.068 141.673 128.333 141.408 128.865 141.673C129.928 141.673 130.725 141.937 130.99 143.526C132.585 152.53 134.444 161.533 136.039 170.537C136.836 174.774 137.367 179.275 137.899 183.247C138.43 187.484 138.696 187.749 142.947 187.749C143.744 187.749 144.541 188.014 145.338 188.014L145.338 188.808C139.759 190.662 134.71 194.105 128.333 194.369L123.816 194.369C113.986 194.369 104.155 193.31 94.3237 191.721C92.4638 191.456 91.9324 190.397 92.1981 188.544C91.401 188.808 90.6039 189.338 90.0725 189.603C89.0097 190.132 88.2126 189.868 87.9469 189.603C87.4155 189.338 87.1498 188.544 87.4155 187.484C87.9469 185.631 88.4783 183.777 89.2754 182.188C89.8068 179.54 90.6039 179.275 94.058 179.275L94.058 179.275ZM130.725 231.707C129.662 231.443 129.13 230.648 128.333 230.118L128.068 229.854C128.865 229.324 129.396 228.794 130.193 228.53C130.99 228.53 131.522 229.324 132.585 230.118C131.787 230.913 130.99 231.443 130.725 231.707ZM132.053 243.094C132.053 246.537 130.459 247.596 127.271 246.801C129.13 245.477 130.459 244.418 132.053 243.094ZM108.406 199.93C106.546 200.99 104.155 202.314 101.763 203.902L101.763 200.46C103.623 199.666 106.015 199.401 108.14 198.871C108.14 199.401 108.406 199.666 108.406 199.93ZM80.5073 186.69C80.5073 185.631 80.5073 183.777 81.0387 182.983C82.1015 181.659 83.1643 180.599 84.2271 179.01L84.4928 178.746C84.4928 178.481 84.7585 178.481 84.7585 178.216C85.0242 177.686 85.0242 177.157 85.2899 176.627L85.2899 176.098C85.5556 175.303 86.3527 174.509 86.8841 173.714C87.1498 173.979 87.4155 174.244 87.6812 174.244L87.6812 175.833C87.6812 179.54 86.087 182.983 84.2271 186.425C83.6957 186.955 81.8358 186.69 80.5073 186.69ZM25.2416 353.784C23.116 351.401 20.9904 348.488 19.1305 345.84C19.3962 345.575 19.6619 345.575 19.9276 345.31C24.9759 346.634 28.1643 350.077 31.3527 354.314C30.2899 355.108 29.2271 355.638 28.1643 355.638C27.1015 355.373 26.0387 354.843 25.2416 353.784ZM34.0097 359.61L33.744 359.61C33.2126 359.61 32.4155 359.345 31.6184 359.08C31.3527 359.875 31.087 360.669 30.8213 361.463L30.8213 362.523C30.8213 362.523 30.8213 362.258 30.5556 362.258L30.5556 362.523C28.9614 360.669 29.4928 359.08 30.2899 357.756C31.3527 356.432 32.4155 354.843 34.2754 355.373C34.5411 355.373 34.8068 355.373 35.0725 355.638C35.8696 356.167 36.401 357.491 36.9324 358.815C35.6039 359.08 34.8068 359.61 34.0097 359.61L34.0097 359.61ZM38.7923 365.436C38.5266 365.171 38.2609 365.171 37.9952 364.906L37.9952 364.641C38.5266 363.317 38.5266 361.463 39.5894 360.404C40.1208 359.875 42.2464 360.669 43.5749 360.934C44.6377 361.463 45.7005 361.993 47.029 362.523C43.8406 363.317 40.9179 361.993 38.7923 365.436ZM52.0773 289.965C50.7488 289.436 49.686 288.641 48.0918 288.112C45.7005 286.787 44.9034 285.463 44.9034 283.875C44.9034 282.815 45.1691 281.756 45.9662 280.167C47.029 277.784 48.0918 275.666 48.8889 273.282C51.2802 267.456 53.9372 261.631 56.5942 255.805C57.3913 255.54 58.7199 255.54 59.2513 254.746C59.517 253.951 59.2513 252.892 59.2513 251.833L59.2513 251.568C58.4542 251.833 57.3913 251.833 56.0628 252.098C56.0628 252.098 55.7971 251.833 55.7971 251.568L55.7971 247.596C57.1256 247.596 59.2512 247.331 60.0484 248.125C66.1595 252.892 73.5991 252.892 81.0387 253.951C88.744 255.01 96.9807 256.335 104.952 257.394C111.86 258.188 119.3 258.983 126.473 258.188C136.039 257.129 145.338 254.216 154.638 251.833C157.295 251.038 157.826 252.892 158.358 254.216C158.889 256.07 159.155 258.453 159.686 260.307C159.952 260.307 160.483 260.042 160.749 260.042C160.217 257.923 159.686 255.805 159.42 253.422L159.42 252.362C159.42 251.568 159.686 250.509 159.686 249.714C161.015 250.244 162.343 250.774 163.937 251.303C164.203 251.303 164.203 251.568 164.203 251.833C164.203 252.627 164.469 253.157 164.469 253.951C165.797 259.512 167.657 264.544 168.454 270.369L168.454 274.341C168.454 276.195 169.517 278.314 170.58 280.167C171.111 280.962 171.643 281.491 171.908 282.286C172.44 283.345 173.768 284.404 173.502 285.728C173.502 286.258 173.502 286.523 172.971 287.052C171.643 289.171 168.454 289.171 166.594 287.582C166.329 287.317 166.063 287.317 165.266 286.787L165.266 287.052C165.266 288.112 164.734 289.171 165 289.965C165.266 291.289 165 292.348 164.469 292.878C163.937 293.408 163.14 293.937 162.343 294.202C152.778 297.115 143.478 298.439 133.647 299.498C119.565 301.352 105.217 302.941 91.1353 300.822C84.2271 300.822 77.8503 298.704 71.4735 296.85C64.831 294.997 58.4541 292.348 52.0773 289.965L52.0773 289.965ZM74.9276 374.704C74.1305 374.704 72.5363 375.233 72.5363 374.969C71.2078 371.526 68.2851 371.526 65.3624 371.526C66.1595 371.261 66.9566 370.997 67.7537 370.997C70.145 370.467 72.5363 370.732 74.6619 371.791C74.9276 371.791 74.9276 372.056 74.9276 372.321C75.1933 372.85 75.1933 373.645 75.1933 374.174C74.9276 374.439 74.9276 374.704 74.9276 374.704ZM90.6039 346.634C90.0725 344.251 91.1353 342.927 94.5894 342.132C94.8551 345.31 93.2609 346.369 90.6039 346.634Z" fill="rgb(0,0,0)" fill-rule="nonzero" />
</svg>
