<svg viewBox="0 0 2382 58" xmlns="http://www.w3.org/2000/svg" xmlns:xlink="http://www.w3.org/1999/xlink" width="2382.000000" height="58.000000" fill="none" customFrame="#000000">
	<path id="волна" d="M2377.16 22.9115C2367.24 19.0737 2357.57 15.51 2347.64 11.6722C2346.88 11.3981 2346.37 11.1239 2345.6 10.5757C2342.3 8.65677 2340.01 8.9309 2336.95 12.4946C2335.17 14.6876 2333.13 16.3324 2330.59 17.4289C2310.48 25.9269 2289.87 29.4906 2268.49 28.3941C2266.7 28.3941 2264.92 28.3941 2263.14 28.6682C2251.43 31.1354 2239.98 32.2319 2228.02 31.1354C2221.91 30.5871 2215.55 30.0388 2209.44 29.2165C2197.99 27.5717 2186.79 25.9269 2175.84 21.815C2165.15 17.703 2154.21 13.317 2143.52 9.47916C2133.08 5.91548 2122.4 3.72245 2111.2 4.81897C2094.91 6.73787 2079.64 12.2205 2064.88 19.3478C2060.04 21.815 2054.95 24.008 2049.86 25.9269C2033.57 31.4095 2016.77 29.2165 1999.97 26.4752C1998.45 26.201 1996.67 25.6528 1995.39 25.1045C1983.43 19.3478 1971.21 14.1394 1958.74 9.20503C1946.53 4.54484 1934.56 4.54484 1922.6 11.1239C1908.35 19.0737 1893.08 22.9115 1876.79 22.9115C1867.12 22.9115 1857.95 20.7185 1848.79 18.7996C1841.67 17.4289 1834.54 17.4289 1827.41 20.1702C1804 29.4906 1779.56 30.313 1755.39 25.6528C1739.1 22.6374 1723.32 17.1548 1707.54 11.6722C1695.57 7.56026 1683.61 5.91549 1671.14 8.65678C1659.94 11.1239 1649.76 16.6065 1640.35 23.4597C1630.42 30.5871 1619.47 34.9732 1607.51 36.3438C1597.33 37.4403 1587.15 39.3592 1576.46 35.2473C1571.63 33.3284 1566.54 31.9578 1561.45 31.4095C1534.21 29.2165 1508 21.2667 1481.78 14.4135C1468.8 11.1239 1455.82 8.38265 1442.33 8.65678C1425.03 8.93091 1408.48 13.317 1392.96 21.5408C1385.32 25.6528 1377.69 29.2165 1369.03 30.0388C1365.47 30.313 1361.91 30.5871 1358.34 30.8612C1336.45 33.0543 1314.82 29.2165 1293.7 23.7339C1289.37 22.6374 1282.75 19.3478 1278.93 16.8807C1274.61 13.8652 1269.77 11.3981 1264.94 9.7533C1256.03 6.73788 1247.12 3.44833 1237.19 3.72246C1228.29 4.27071 1219.89 5.91549 1211.23 7.83439C1196.98 11.1239 1182.98 16.0583 1168.22 17.4289C1167.71 17.4289 1166.69 17.703 1166.18 17.703C1154.99 20.7185 1143.53 24.2821 1132.08 27.0234C1130.3 27.5717 1128.26 27.8458 1126.23 27.8458C1106.12 28.1199 1086.52 24.8304 1067.69 18.5254C1050.89 12.7687 1033.84 9.20504 1016.02 9.75329C1001.26 10.0274 987.261 13.5911 973.772 19.8961C962.064 25.3787 950.102 30.313 938.14 35.5214C931.268 38.5368 923.887 40.1816 916.252 37.9886L915.234 37.9886C905.817 39.0851 897.163 36.3438 888.764 32.2319C878.075 27.0234 867.385 21.5408 856.186 17.703C841.679 12.7687 826.663 9.47916 811.646 5.64135C810.374 5.36723 808.847 5.0931 807.574 5.0931C793.576 5.36723 779.323 3.99658 765.579 6.46374C750.308 9.20503 735.038 12.2205 720.785 19.3478C709.586 25.1045 698.387 31.1354 685.916 33.6025C676.754 35.5214 667.591 36.3438 658.429 33.0543C652.32 30.8612 646.212 28.9423 640.358 26.4752C633.995 24.008 627.887 20.9926 621.779 17.9772C612.871 13.317 603.963 8.38265 594.291 5.36723C581.565 1.80355 568.84 -0.663614 555.859 0.158773C547.46 0.707031 539.316 1.80355 531.172 2.90006C530.662 2.90006 529.899 3.17419 529.135 3.17419C521.245 4.81897 513.61 6.18961 505.72 6.18961C502.666 6.73787 499.612 7.28613 496.303 7.83439C494.776 8.38265 493.249 8.9309 491.722 9.47916C489.94 10.0274 488.159 10.3015 486.377 10.8498C485.104 11.3981 483.832 11.9463 482.559 12.4946C478.742 13.5911 474.924 14.4135 471.106 14.9617C470.852 14.9617 470.597 14.9617 470.343 15.2359C469.834 15.51 469.07 15.51 468.561 15.7841C467.288 16.0583 466.27 16.3324 464.998 16.3324C458.635 17.703 452.527 19.0737 446.164 20.1702C441.837 20.7185 437.51 21.2667 433.183 21.5408C416.895 24.2821 399.588 25.9269 382.026 25.9269C354.539 25.9269 328.324 22.0891 304.145 15.51C300.581 15.2359 297.273 14.9617 293.71 14.4135C291.673 14.1394 289.637 13.5911 287.601 13.317C285.056 13.0428 282.256 12.7687 279.711 12.2205C277.93 11.9463 276.403 11.1239 274.621 10.5757C272.33 10.0274 270.04 9.47916 267.749 8.9309L266.986 8.9309C256.805 7.28613 246.624 5.36722 236.444 5.0931C213.029 4.27071 189.868 5.91548 166.961 10.8498C140.237 16.8806 114.531 26.4752 88.8255 35.7956C86.5349 36.6179 84.4988 37.1662 82.2081 37.4403C57.7748 41.004 33.5959 38.5368 9.16252 36.0697C6.10834 35.7956 3.30869 35.5214 0 35.2473L0 46.2125C3.30869 46.7607 6.36286 47.0348 9.16252 47.309C29.0146 50.0503 48.6122 52.7915 68.7189 52.2433C80.4265 51.9692 91.6252 50.0503 102.569 46.2124C115.55 41.5523 128.275 36.6179 141.255 31.6836C153.727 27.2975 166.452 24.8304 179.433 24.5563C188.595 24.5563 197.758 23.1856 206.666 23.1856C216.083 22.9115 225.5 23.1856 234.917 23.7339C241.789 24.2821 248.661 25.9269 255.532 27.0234C272.839 29.7647 289.637 34.4249 305.926 41.2781C306.944 41.5523 307.708 41.8264 308.471 42.3746C308.726 42.3746 308.726 42.6488 308.98 42.6488C315.089 45.3901 321.706 47.0348 328.324 49.2279C332.65 50.5985 337.232 51.1468 341.558 52.7915C355.302 53.6139 368.791 58 382.535 57.7259C383.299 57.7259 383.808 58 384.571 58C384.826 58 384.826 57.7259 385.08 57.7259C385.844 57.4517 386.607 57.4517 387.371 57.7259L388.134 57.7259C391.698 56.9035 395.77 56.9035 399.079 57.1776C405.95 56.6293 412.568 55.807 419.44 54.9846C429.62 53.8881 439.292 52.5174 448.963 49.2279C458.38 45.9383 467.797 42.3746 477.469 39.3592C493.758 32.2319 510.301 25.3786 527.354 21.815C530.917 20.7184 534.48 19.8961 537.789 18.7995C538.043 18.7995 538.298 18.7995 538.552 18.5254C559.677 17.4289 580.547 17.9771 600.908 24.5562C611.344 27.8458 621.524 31.4095 631.705 34.9732C637.304 36.8921 642.903 37.9886 648.248 40.4557C662.246 46.7607 676.754 46.2124 691.006 43.197C703.987 40.4557 716.967 36.3438 729.693 33.0543C733.001 32.2319 738.601 30.313 741.909 28.9423C758.453 22.6373 775.76 22.6373 792.812 20.9926C794.594 20.7184 796.63 20.7184 798.412 20.9926C825.645 23.4597 852.369 30.0388 878.584 37.9886C889.528 41.2781 900.472 45.1159 911.925 47.5831C920.324 49.502 928.723 49.7761 937.122 47.5831C952.647 43.4712 967.918 38.2627 982.935 31.6836C998.46 24.8304 1014.75 22.0891 1031.55 23.7339C1044.53 25.1045 1057.25 28.3941 1069.47 32.7801C1085.76 38.5368 1102.3 41.8264 1119.35 40.4557C1126.99 39.9075 1134.37 38.2627 1142.01 37.4403C1160.59 35.2473 1177.64 26.7493 1195.45 22.0891C1195.96 21.815 1196.47 21.815 1196.98 21.5408C1205.13 17.1548 1213.52 14.6876 1222.43 12.7687C1232.87 10.3015 1243.3 10.0274 1253.48 13.5911C1258.06 15.2359 1262.39 17.1548 1266.72 19.3478C1281.23 26.201 1296.5 30.313 1311.51 34.1508C1322.71 36.8921 1334.42 38.2627 1346.13 39.3592C1358.34 40.7299 1370.81 40.4557 1382.78 36.8921C1393.72 33.6025 1404.66 30.313 1415.1 25.9269C1431.64 19.0737 1448.44 17.703 1466 18.5254C1467.02 18.5254 1468.29 18.7995 1469.31 19.0737C1485.85 24.008 1502.14 30.0388 1518.94 34.9732C1531.41 38.811 1544.14 42.1005 1556.61 45.1159C1563.74 46.7607 1571.12 47.0348 1578.24 47.5831C1591.73 48.6796 1605.22 49.2279 1618.71 47.0348C1628.13 45.6642 1636.53 42.6488 1644.42 36.6179C1649.76 32.506 1655.87 29.4906 1661.98 27.0234C1668.09 24.2821 1674.7 22.0891 1681.07 20.1702C1693.79 16.6065 1706.77 15.7841 1719.5 20.9926C1722.55 22.3632 1725.86 23.7339 1728.92 24.8304C1737.57 28.1199 1745.97 31.9577 1754.62 34.699C1764.29 37.7144 1774.22 39.3592 1784.15 38.2627C1796.87 36.6179 1809.6 34.9732 1822.07 31.4095C1829.7 29.2164 1837.59 29.2164 1845.48 31.4095C1857.96 34.9732 1870.68 36.8921 1883.41 32.7801C1894.35 29.2164 1905.55 26.201 1916.49 22.3632C1932.53 16.8806 1948.31 16.0582 1964.09 24.008C1965.11 24.5562 1966.12 24.8304 1967.14 25.1045C1980.89 27.2975 1993.87 32.2319 2007.86 33.8766C2022.88 35.5214 2037.9 38.811 2053.17 38.5368C2064.62 38.2627 2075.31 36.0697 2085.49 31.1353C2090.33 28.9423 2095.16 27.2975 2100.25 25.9269C2106.11 24.5562 2111.96 23.7339 2117.81 22.9115C2127.49 21.815 2136.9 21.2667 2146.57 24.008C2159.55 27.8458 2172.53 31.9577 2185.51 35.7955C2197.22 39.3592 2209.44 41.2781 2221.4 41.8264C2239.73 42.6488 2257.8 42.3746 2275.87 39.6333C2288.08 37.7144 2300.3 36.6179 2312.01 31.9577C2316.08 30.313 2320.15 28.6682 2324.23 27.0234C2338.48 21.2667 2352.73 18.7995 2366.22 29.2164C2368 30.5871 2370.29 31.6836 2372.58 32.506C2375.38 33.6025 2378.18 34.699 2380.98 35.7955C2381.49 35.2473 2381.75 34.9731 2381.75 34.4249C2381.75 32.506 2382 30.313 2382 28.394C2381.49 24.8304 2381.49 24.5562 2377.16 22.9115L2377.16 22.9115Z" fill="rgb(0,0,0)" fill-rule="nonzero" />
</svg>
