<?xml version="1.0" encoding="UTF-8"?>
<svg id="_Слой_2" data-name="Слой 2" xmlns="http://www.w3.org/2000/svg" viewBox="0 0 129.85 39.23">
  <g id="_Слой_1-2" data-name="Слой 1">
    <g>
      <path d="m56.79,10.8c-.4-.5-.6-.9-.9-1.2-.4-.4-.9-.8-1.4-.9-2.3-.4-2.7,0-2.5,2.3.1,1.3.1,2.6.1,3.9,0,4.5,0,9.1-.1,13.6,0,1.2.4,2.1,1.5,2.7.3.2.6.3.8.6.2.2.3.6.3.8,0,.1-.5.3-.7.3-2.1-.2-4.1-.5-6.2-.8,0-.1-.1-.2-.1-.4.4-.3.8-.8,1.3-1,.9-.4,1-1,1-1.9-.1-5.9-.2-11.9-.2-17.8,0-.9.2-1.8-.8-2.4-1-.5-1.8-.3-2.6.4-.3.2-.8.3-1.2.5.3,0,.6,0,.8.1.3.2.8.4.8.7.2,1.8.4,3.7-1.4,5-.3.2-.8.5-1.2.4-.3-.1-.6-.6-.6-.9.1-.8.4-1.6.6-2.3.1-.5.3-1,.3-1.5-.1-1.3-1.1-2.2-2.1-2.8-1.3-.8-3.6,1-3.6,2.8,0,5.2.1,10.4.1,15.6v2.6c0,.8.4,1.3,1.2,1.4,1,.1,2,.2,3,.2.3,0,.7-.3.9-.5,1-1.2,1-2.8,0-4-.6-.7-.2-1.2.4-1.6.6-.5,1.2-.8,1.6,0s.9,1.8.8,2.7c0,3.1-3.9,7.4-8.4,5-1.8-1-2.7-2.6-2.7-4.5-.1-5-.2-10,0-15,.2-4.4,3.3-6.6,7.6-6,1.1.1,2.1.2,3.2.1.8-.1,1.7.2,2.6.2,2,.1,3.9.2,5.9.3,2.1,0,2.7.9,1.9,3.3Z"/>
      <path d="m90.39,20c-.3,1.5-.5,3-.1,4.7.3,1.1.2,2.2.1,3.3-.1,1.7.1,2.1,1.8,2.3.6.1,1.2.2,1.1,1-.1.9.3,2.1-1,2.3-1.9.2-3.8.3-5.7.1-.4,0-.9-1.1-1.1-1.8-.2-.6,0-1.3.9-1.4,1.3-.2,1.5-.9,1.4-2.1-.1-2.8,0-5.7,0-8.7-.8.1-1.4.3-1.8.2-.4-.1-.7-.4-1.1-.6.3-.4.6-1.2.9-1.2,1.5,0,1.7-.7,1.7-2-.1-1.8-.1-3.7,0-5.5,0-.8-.3-1.2-1.1-1.3-.6-.1-1.3-.2-1.2-1.1.1-.8.3-1.6,1.3-1.7.9-.1,1.8-.1,2.7-.2.8,0,1.6-.1,2.5-.1.5,0,1,.2,1.5.4-.2.7-.4,1.9-.7,2-2.4.3-2,2-2,3.6v4c0,.5.1.9.2,1.4.1,0,.2.1.3.1.4-.5.9-1,1.1-1.6,1.1-2.4,2-4.9,3.1-7.3.3-.7.8-1.4,1.3-2,2.2,1.3,3.4,4.6,2.6,6.7-.1.3-.4.7-.6.7-.3,0-.7-.3-.8-.6-.2-.7-.1-1.5-.3-2.3-.1-.5-.4-1-.7-1.4-.2-.2-.7-.3-1-.2-.2.1-.2.6-.3.9-.5,1.7-.8,3.5-1.5,5.1-.5,1.4-.7,2.5,0,3.9,1.2,2.3,2,4.9,3.3,7.2.6,1,2,1.5,3.3,2.4.2-.9.3-1.5.5-2,.1-.3.6-.8.8-.7.4.1.8.4.9.8.5,1.8-1.7,4.8-3.5,5.1-1.3.2-2.5-.6-3.1-1.9-1-2.5-2.1-5-3.2-7.5-.5-1.1-1.2-2-1.9-3.1-.3,0-.5.1-.6.1Z"/>
      <path d="m66.79,32.6c-.5-.1-1.3-.1-2.1-.3-.4-.1-1.2-.4-1.2-.5.2-.6.3-1.6.8-1.8,1-.4,1-1,.9-1.8-.1-1.2.1-2.4,0-3.5,0-.4-.4-1.1-.6-1.1-.5,0-1.4.2-1.5.6-.7,2-1.3,4-1.7,6.1-.3,1.3-1,2.1-2.2,2.5-1.1.4-2-.1-2.6-1-.8-1.2-1.4-2.6-2.1-3.9-.1-.2-.1-.4-.1-.6.3-.7.7-1.3,1.1-1.9l1.5,1.5c.1.2,0,.5.2.7.4.5.9,1,1.3,1.6.5-.5,1.1-.9,1.5-1.4.3-.3.3-.8.5-1.2.6-2.5.5-2.7-2.1-2.8-1-.1-1.3-.5-1.3-1.4.1-.8.1-1.7,1.4-1.6.3,0,.6,0,.9.1,2.1.2,2.4-.1,2.6-2.2.2-2.2.3-4.5.5-6.7,0-.6.1-1.2.3-1.7.6-1.2,0-1.4-1-1.4-1.1,0-1.8-1.4-1.2-2.4.1-.2.5-.4.7-.4,2.2,0,4.4.1,6.7.1.9,0,1.6.2,1.7,1.3.1,1.1-.6,1.4-1.5,1.5-1.1.1-1.5.6-1.4,1.7.1,3,.2,6,.2,9,0,.7.3,1.1,1,1h1c.8.1,1.7-.1,1.6,1.2-.1,1.4-.3,1.6-1.7,1.6q-2.3-.1-2.1,2.2c.1.7.1,1.5.1,2.2,0,1.2.4,1.8,1.6,1.7.7,0,1.4.1,1.5,1.1s-.2,1.6-1.3,1.6c-.5.2-1.1.3-1.9.3Zm-1.6-14.4h0c.1-.6.1-1.1.1-1.7,0-.3-.3-.6-.5-.9-.2.2-.7.4-.7.7-.2,1.2-.4,2.5-.5,3.7,0,.3.4.6.7,1,.3-.3.9-.5.9-.9.1-.6,0-1.2,0-1.9Z"/>
      <path d="m103.89,26.1c.4.8.7,1.7,1.2,2.4.3.5.9.8,1.3,1.1.4-.5.9-.9,1-1.4.3-1.3.5-2.7.8-4.1.1-.7-.2-1.1-.9-1.1-.4,0-.7-.1-1.1-.1-1.3,0-1.3-.9-1.2-1.8.1-1.1.9-.8,1.6-.7.2,0,.3.1.5.1,1.5.3,1.7.2,2-1.3.4-2.3.7-4.6,1.1-6.8.2-.9.5-1.9.8-2.9-.6-.1-1.2-.2-1.8-.3-.7-.1-1.1-.3-1-1s.1-1.6,1.1-1.6c1.9-.1,3.9-.1,5.8,0,.4,0,1.1.5,1.1.8,0,.5-.3,1.3-.7,1.5-1,.4-1.1,1-1,1.9.2,3,.4,6,.5,9,0,.8.4,1.3,1.2,1.3.2,0,.5,0,.7.1.3.2.7.4.8.7.1.2-.2.8-.4.9-1.8.6-2,1.9-1.6,3.4.1.5.2,1.1.1,1.6-.1,1.5.4,2.4,2.1,2.4,1,0,.8.9.7,1.4,0,.4-.4,1.1-.7,1.1-1.7.2-3.4.2-5.1.2-.2,0-.7-.4-.7-.5.1-.5.1-1.3.5-1.5,1.3-.6,1.3-1.6,1.1-2.7-.2-1-.3-2.1-.3-3.1-.1-1.1-.9-1.3-1.8-1.4s-1.3.3-1.4,1.2c-.3,2.1-.5,4.2-2,5.9-1.6,1.7-4,1.3-4.9-.9-.2-.6-.2-1.2-.4-1.8-.3-.9-.1-1.5,1-2Zm8.9-11.2h-.5c-.8.8-1.8,4.5-1.3,5.4.2.3.6.5,1,.5.3,0,.7-.4.7-.6.2-1.8.1-3.6.1-5.3Z"/>
      <path d="m79.89,19.7c-.1-.1,0,0,0,0,3.1.9,3.8,3.3,4.1,5.9.2,2.4-.1,4.7-1.7,6.7-.6.7-1.4,1.1-2.4,1.1-2.2-.1-4.5-.1-6.7-.3-.4,0-1.1-.5-1.1-.8-.1-.6.1-1.5.5-1.7,1.2-.6,1.3-1.5,1.1-2.6-.1-.8-.1-1.7-.1-2.6,0-5,.1-10.1.2-15.1,0-.7-.2-1.1-.9-1.1-1.2,0-1.3-.8-1.2-1.7,0-1.1.9-.8,1.5-.8h4c2.2.1,3.8,1.2,4.3,3.2.4,1.8.8,3.8.6,5.6-.4,1.4-1.5,2.7-2.2,4.2Zm-4.2,8.2c0,.7-.1,1.5,0,2.3.1.4.6,1,.9,1,3.5.1,5.5-.5,5.6-4.4v-.7c-.1-3.5-2-5.1-5.5-4.5-.9.1-1.3.5-1.2,1.4,0,1.5.1,3.2.2,4.9Zm4.8-14.2c-.1-.7-.1-1.5-.3-2.2-.4-1.7-1.2-2.4-3-2.7-.9-.1-1.4.2-1.4,1-.1,2.3-.3,4.6-.3,6.9,0,1.6,1.1,2.2,2.6,1.5,2.1-.8,2.3-2.6,2.4-4.5Z"/>
      <path d="m14.59,9.3c-.2-.1-.6-.1-.9-.4s-.7-.7-.7-1.1c0-.3.5-.9.8-.9,1.9-.2,3.8-.2,5.7-.2.3,0,.7.4.8.7.1.2-.3.5-.5.8-.3.4-.8.8-.8,1.3,0,3.6,0,7.2.1,10.8,0,1,.5,2.1.7,3.1.1.8.1,1.6,0,2.4-.1,1.4.2,2.4,1.7,2.8.3.1.7.5.7.7.1,1.3.2,2.6.2,3.9,0,.1-.7.4-.7.4-.5-.5-1.1-1-1.2-1.6-.4-1.9-.6-2.3-2.7-2.2-2.5.1-5,.4-7.5.6-.2,0-.4.1-.7.3.4.8.7,1.5,1.1,2.4-1.1.4-1.8.4-2.2-.7-.5-1.2-1-2.4-1.5-3.7.4-.1.8-.1,1.2-.2,1.9-.2,2.7-1,3-2.8.3-1.7.3-3.6,1.1-4.9,1.1-1.7.6-3.3.7-5,.1-1-.2-2,.8-2.7.1-.1.1-.4.2-.6.2-.9.4-2,.6-3.2Zm2.6,10.2h0c-.1-2.5-.1-5,0-7.4,0-.7-.1-1.4-.9-1.4-.2,0-.6.9-.6,1.3-.3,3.1-.6,6.1-.9,9.2,0,.2-.1.3-.1.5-.5,1.3-1,2.6-1.4,4-1.2,3.5-.7,3.1,2.5,2.9,1.1-.1,1.6-.5,1.5-1.7-.1-2.6-.1-5-.1-7.4Z"/>
      <path d="m34.19,20.5c-.1,2.1-.2,4.4-.4,6.6-.2,1.9-1,3.5-2.2,4.9-1.1,1.3-3.8,1.4-5.1.4s-2.1-2.3-2.5-4c-.7-4.1-1.1-8.2-.9-12.4.2-3.7,1.6-6.9,4-9.7.6-.7,3-.6,3.8.2,1.9,1.8,2.8,4,3,6.5,0,2.4.1,4.9.3,7.5Zm-2.5,0h-.2c0-1.9.1-3.9,0-5.8-.1-1.7-.3-3.5-.5-5.2-.1-1-.8-1.3-1.7-1.4-1.9,0-4.1,2.6-4,4.6.1,2.2.1,4.5.3,6.7.3,3.3-.7,6.7.4,10,.3.9.6,1.4,1.5,1.5.5,0,.9,0,1.4.1,2.2.2,2.9-.4,2.8-2.6-.1-2.7,0-5.3,0-7.9Z"/>
      <path d="m120.99,38c-26.3,0-52.6,1.7-78.8,1.1-7.8-.2-24.4-.5-32-.7C4.69,38.9-.21,34.8.19,29.1v-2.5c0-3.3-.1-11.6-.1-14.8C-.61,6.1,2.59,1,8.69.8,34.99.2,61.29,0,87.49,0c9.9.1,19.7.1,29.6.3,1.4.1,3.5,0,5.1.2,1.9.3,3.6,1.1,4.9,2.4,2,1.8,3,4.7,2.7,7.4l-.1,2.5-.3,9.9c-.3,3.3.3,6.7-.7,9.9-1.1,3.2-4.3,5.5-7.7,5.4h0Zm0-.3c3.3,0,6.3-2.2,7.3-5.3.8-3.1.2-6.5.3-9.7l-.3-9.9c-.1-1.3,0-3.5-.3-4.7-.4-1.4-1.2-2.7-2.3-3.6-2.3-2.2-5.7-1.6-8.7-1.5-3.3.1-6.6.1-9.9.2-19.7.3-39.4.1-59.1,0-13.1-.1-26.3-.3-39.4-.6-3-.1-5.9,1.9-6.9,4.7-.6,1.5-.5,3.1-.5,4.7v4.9l-.1,9.9c0,1.4-.1,3.5.2,4.8.9,4.1,4.9,6.3,8.9,5.8h2.5c6.2-.1,23.2-.5,29.6-.6,26.1-.8,52.4.9,78.7.9h0Z"/>
    </g>
  </g>
</svg>