<?xml version="1.0" encoding="UTF-8"?>
<svg id="_Слой_2" data-name="Слой 2" xmlns="http://www.w3.org/2000/svg" viewBox="0 0 129.85 39.23">
  <g id="_Слой_1-2" data-name="Слой 1">
    <g>
      <path d="m23.79,30.1c0-.6,0-1.1.1-1.6.1-.4.4-1,.7-1.1.4-.1,1.1.2,1.4.5,1,.9.7,2.1,0,3.9-.4.9-1.9,1.4-3.1,1.1s-2.4-.9-2.8-2c-.6-1.8-1.1-3.7-1.6-5.6-.3-1.2-.5-2.4-1-3.4-.4-.8-1.4-1.4-2.4-1-1.1.4-1.3,1.3-1.2,2.3.1,2.4.2,4.9.4,7.3v1.6c-.1,1-.5,1.5-1.6,1.4-1-.1-1.9,0-2.9-.2-.3-.1-.8-.5-.9-.8-.2-.5-.1-1-.2-1.6-.1-.7.2-1,.9-1q1.9-.1,2-1.9c0-1.7,0-3.4.1-5.1,0-1-.4-1.5-1.4-1.5-1.4,0-2.2-1.5-1.5-2.7.2-.3.8-.5,1.2-.5.9,0,1.2-.4,1.2-1.3v-6.4c-.1,0-.4-.1-.7-.1q-2.1,0-2.1-2.1c0-.9.3-1.2,1.2-1.3,4.3-.6,4.5-.5,4.4,3.6-.1,1.7-.2,3.5-.3,5.2,0,.8-.1,1.7.9,1.9,1.1.3,1.5-.6,1.9-1.4.8-2.1,1.5-4.2,2.3-6.3.5-1.3,1.1-2.4,2.5-2.8.4-.1.8-.2,1.2-.1,2.9.8,4.2,5.5,2,7.6-.4.3-1.2.6-1.5.4-.5-.2-.9-.9-1-1.4-.1-.7.1-1.4.2-2.2s-.1-1.5-.9-1.6c-.4,0-1,.5-1.1.9-.9,2.2-1.8,4.4-2.6,6.6-.2.5-.3,1.1.5,1.4,2.3.9,3.3,2.7,3.4,5,.1,1.5.4,3.1.6,4.6.1.8.4,1.7,1.7,1.7Z"/>
      <path d="m38.89,6.4c.8,0,1.7-.1,2.5,0,.5.1,1.4.4,1.3.5-.1.7-.3,1.9-.7,2-1.5.4-1.4,1.2-1.2,2.3.2,1.5.2,3.1.3,4.6,0,2.2.2,2.4,2.5,2.8.6.1,1.1.2,1.1,1,0,1-.4,1.4-1.4,1.3q-2.4-.1-2.4,2.3c0,1.8,0,3.6-.1,5.4,0,1,.2,1.5,1.4,1.4,1.5-.1,1.6.1,1.5,1.6-.1.7-.3,1.1-1.1,1h-2.9c-.9,0-1.1-.4-1.1-1.2.2-3.1.2-6.3.4-9.4,0-.7,0-1.5-1-1.4-.9.1-1.9-.4-2.1,1.2-.3,2.5-.8,4.9-1.3,7.3-.5,2.5-2.3,3.7-4.9,3.5-1-.1-1.6-.5-1.6-1.5,0-1.1,0-2.3.1-3.4.1-.4.6-.7.9-1,.3.4.8.8.8,1.2,0,.7-.3,1.4-.3,2.1,0,.4.1.8.2,1.2.5-.1,1.2,0,1.6-.4s.7-1,.8-1.6c.5-2.5.9-4.9,1.3-7.4,0-.3-.4-.8-.7-.9-.5-.2-1.1-.2-1.7-.2-1,.1-1.4-.3-1.4-1.3,0-.9.3-1.3,1.3-1.2,2.8.1,3.1-.1,4-2.7.7-2,1.2-4,1.8-5.9.3-.9-.5-.9-1-1.3-.4-.3-1-.7-1.1-1.2-.1-.6.2-1.1,1-1,1.2.3,2.2.3,3.2.3h0Zm-.5,6.1h-.3c-.5,1.6-1.1,3.2-1.6,4.8-.2.5-.3,1.3.7,1.3.8,0,1.2-.2,1.2-1.1-.1-1.7,0-3.3,0-5Z"/>
      <path d="m85.79,10.7c-.2,1.2-.4,2.4-.5,3.6-.2,3.9-.3,7.8-.6,11.7-.1,1.4-.3,2.9-.7,4.3-.9,2.7-4.1,3.6-6.3,1.8-1-.8-1.6-2.1-2.1-3.3-.4-1,.5-2.2,1.4-2.4s1.7.6,1.9,1.8c.1.5.1,1,.2,1.5.1,1,.7,1.4,1.7,1.4s1.1-.7,1.2-1.4c.4-5.8.8-11.5,1.2-17.3v-1c.2-1.3.3-2.5-1.7-2.4-.2,0-.6-1-.7-1.6,0-.2.6-.7,1-.7,2.5,0,4.9,0,7.4.1.5,0,1.3.3,1.3.4-.1.7-.2,1.6-.6,1.9-.7.5-.9,1-.9,1.8.3,5.2.5,10.4.7,15.6,0,.8,0,1.6.2,2.3.1.4.6.8.9,1.1.3.3.8.5.9.9.5,1.7.3,1.9-1.5,1.9-1,0-2.1.1-3.1,0-.4,0-1.2-.4-1.2-.7-.1-.5.1-1.4.5-1.6,1.2-.6,1.1-1.4,1-2.4-.2-3.8-.3-7.6-.4-11.4-.1-1.5-.1-3.1-.3-4.6,0-.4-.3-.8-.4-1.2-.1-.1-.3-.1-.5-.1Z"/>
      <path d="m72.39,21.4v9.3c.5,0,.9.1,1.4.1,1,0,1.1.6,1,1.3,0,.7-.5.8-1.1.7-.9-.1-1.7-.1-2.6-.1-.8,0-1-.2-1-1,.1-3,.3-5.9.3-8.9,0-.7.5-1.7-.9-1.8-1.7-.1-2.2.3-2.4,1.7-.4,2.5-.8,5-1.2,7.6-.4,2.9-4.2,3.6-5.9,2.1-1-.9-1.5-3.6-.6-4.6.2-.3.8-.5,1-.4.4.2.9.7.9,1.1.1.6-.3,1.2-.3,1.8s.2,1.2.3,1.9c.6-.3,1.4-.6,1.6-1,.5-1.3.9-2.8,1.2-4.2.3-1.1.4-2.3.6-3.5.3-1.7.2-1.9-1.5-2.3-.7-.2-1.2-.3-1.2-1.1,0-.9.3-1.3,1.2-1.2,1.4.2,2.2-.4,2.6-1.7.8-2.4,1.6-4.9,2.3-7.3.1-.3-.3-.7-.6-1-.4-.3-1-.4-1.3-.7s-.4-.9-.3-1.3c0-.2.6-.5,1-.5,1.9,0,3.8-.1,5.7,0,.4,0,1.1.4,1.1.6,0,.4-.3,1.1-.6,1.3-1.3.5-1.2,1.2-1,2.3.3,2.1.3,4.2.4,6.3,0,.9.1,1.6,1.2,1.8,1,.2.7,1.1.7,1.7,0,.2-.5.5-.9.7-.2.3-.7.3-1.1.3Zm-2.6-8.5c-.2,0-.4,0-.6-.1-.5,1.8-1,3.6-1.4,5.5,0,.2.5.7.8.7.4,0,1.2-.3,1.2-.5.1-1.9,0-3.8,0-5.6Z"/>
      <path d="m107.99,19.8c-.2,2.3-.2,4.6-.7,6.8-.7,3-2.3,5.4-5.7,6.2-2.3.5-5.2-.7-6.4-2.6-1.4-2.3-2.1-4.8-2.2-7.4-.2-3.8-.6-7.7,1.1-11.3.6-1.3,1.5-2.7,2.6-3.7,3.1-2.9,8.4-1.6,9.9,2.3,1.2,3.1,1.2,6.4,1.4,9.7Zm-2.9-1.5h-.3c0-1.6.1-3.2,0-4.9-.1-1.9-.6-3.7-1.9-5.2-1.4-1.6-3.9-1.5-4.9.3-.9,1.6-1.8,3.4-1.8,5.1-.1,4.5.1,9,.5,13.4.1,1.2,1,2.5,1.8,3.5,1.4,1.8,3.6,1.6,4.6-.4.6-1.1,1.1-2.4,1.3-3.6.3-2.7.4-5.4.7-8.2Z"/>
      <path d="m51.29,30.5v-9.4c0-3.9-.1-7.7-.1-11.6,0-1.1-.4-1.6-1.5-1.4-1,.2-1.9.6-2.9.8-.5.1-1,.2-1.5.3-.1-.7-.3-1.4-.3-2.1,0-.3.7-.9,1-.9,1.9,0,3.7.1,5.6.1,2.3,0,4.6.1,6.9.1q2.1-.1,2.2,1.9c0,.6-.2,1.3-.3,1.9-.1,0-.3.1-.4.1-.3-.4-.7-.8-1-1.3-.8-1.1-2.6-1.7-3.8-1-.3.2-.5.8-.5,1.2v17.5c0,.6.1,1.2,0,1.7-.3,1.3.2,2.1,1.5,2.5.2,0,.4.2.5.3.2.3.3.7.5,1-.3.1-.7.3-1,.3-2.2-.1-4.4-.2-6.6-.4-.3,0-.9-.5-.8-.6.2-.4.4-.9.8-1.1.5.2,1.1.2,1.7.1Z"/>
      <path d="m121.39,10.8h-.4c-1.6-2.3-4.1-1.5-6.3-1.6-.6,0-1.1.2-1.1,1,0,5.8-.1,11.5-.1,17.3v1.5c-.1,1,.3,1.7,1.3,2.1.4.2.7.8.6,1.2,0,.3-.7.7-1.1.7-1.1,0-2.2-.1-3.4-.2-1.1-.1-1.4-.9-.6-1.6,1.1-.9.9-2,.9-3.2-.2-5.7-.2-11.5-.3-17.2,0-.8-.1-1.2-.8-1.7-.5-.3-.6-1.2-.9-1.8.5-.2,1-.5,1.5-.5,3.1-.1,6.2-.2,9.3-.3.8,0,1.2.1,1.2.9.2,1.1.2,2.2.2,3.4Z"/>
      <path d="m120.99,38c-26.3,0-52.6,1.7-78.8,1.1-7.8-.2-24.4-.5-32-.7C4.69,38.9-.21,34.8.19,29.1v-2.5c0-3.3-.1-11.6-.1-14.8C-.61,6.1,2.59,1,8.69.8,34.99.2,61.29,0,87.49,0c9.9.1,19.7.1,29.6.3,1.4.1,3.5,0,5.1.2,1.9.3,3.6,1.1,4.9,2.4,2,1.8,3,4.7,2.7,7.4l-.1,2.5-.3,9.9c-.3,3.3.3,6.7-.7,9.9-1,3.2-4.3,5.4-7.7,5.4h0Zm0-.3c3.3,0,6.3-2.2,7.3-5.3.8-3.1.2-6.5.3-9.7l-.3-9.9c-.1-1.3,0-3.5-.3-4.7-.4-1.4-1.2-2.7-2.3-3.6-2.3-2.2-5.7-1.6-8.7-1.5-3.3.1-6.6.1-9.9.2-19.7.3-39.4.1-59.1,0-13.1-.1-26.3-.3-39.4-.6-3-.1-5.9,1.9-6.9,4.7-.6,1.5-.5,3.1-.5,4.7v4.9l-.1,9.9c0,1.4-.1,3.5.2,4.8.9,4.1,4.9,6.3,8.9,5.8h2.5c6.2-.1,23.2-.5,29.6-.6,26.2-.8,52.5.9,78.7.9h0Z"/>
    </g>
  </g>
</svg>