<?xml version="1.0" encoding="UTF-8"?>
<svg id="_Слой_2" data-name="Слой 2" xmlns="http://www.w3.org/2000/svg" viewBox="0 0 129.08 37.15">
  <defs>
    <style>
      .cls-1 {
        fill: #fff;
      }
    </style>
  </defs>
  <g id="_Слой_1-2" data-name="Слой 1">
    <g>
      <g>
        <path d="m120.68,36.74H8.28c-4.4,0-8-3.6-8-8V8.54C.28,4.14,3.88.54,8.28.54h112.4c4.4,0,8,3.6,8,8v20.2c0,4.4-3.6,8-8,8Z"/>
        <path d="m120.68,36.74c-25.6,0-53.4.5-78.8.4-7.8-.1-24.4-.2-32-.2C4.58,37.54-.22,33.54.18,28.04v-2.5C.18,22.24.18,13.94.08,10.74-.52,5.24,2.48.44,8.28.24,40.88.04,74.18-.06,106.88.04l9.9.1c1.3,0,3.6-.1,5,.1,1.7.2,3.3,1,4.6,2.1,1.9,1.7,2.8,4.4,2.7,6.9v2.5l-.1,9.9v4.9c0,1.6.1,3.3-.5,4.9-1.3,3.1-4.5,5.4-7.8,5.3h0Zm0-.1c3.3,0,6.4-2.2,7.5-5.3.6-1.5.4-3.2.4-4.8v-4.9l-.1-9.9v-2.5c.1-2.4-.8-4.8-2.6-6.4-2.4-2.4-6-1.9-9.1-1.9l-9.9.1c-32.7.1-65.9,0-98.6-.2C5.08.74,1.98,2.94.98,5.94c-.6,1.5-.4,3.1-.5,4.8v17.3c-.3,4.1,2.8,8.1,6.9,8.5,8.8.1,25.5-.2,34.5-.2,25.4-.2,53.2.3,78.8.3h0Z"/>
      </g>
      <path class="cls-1" d="m103.38,6.64c-.1.8-.2,1.7-.3,2.5h-.5c-.2-.3-.4-.7-.6-1-.6-1-1.6-.7-2.4-.6-.2,0-.4.9-.4,1.4,0,1.1.1,2.3.1,3.4v15.2c0,1,.3,1.7,1.3,2.1.4.2.5.7.8,1.1-.4.2-.9.7-1.3.7-1.6-.1-3.2-.1-4.8-1,.3-.4.5-.8.8-1,1.1-.6,1.1-1.6,1.1-2.7-.1-5.9,0-11.8-.1-17.7,0-.5-.2-1.5-.5-1.6-.7-.1-1.5.1-2.2.3-.4.1-.8.4-1.2.6-.1-.1-.3-.1-.4-.2.2-.9.1-2,.6-2.5s1.7-.5,2.5-.3c2.5.7,5.1.6,7.6.4,1.8-.1,3.7-.2,5.5-.2.3,0,.8.7.8,1.1.1.6.4,1.6-.6,1.7-1.5.2-1.7,1-1.6,2.3.1.8-.3,1.6-.4,2.6,1.1,1,0,2.4.3,3.8.7.1,1.3.2,2,.3,2.7.5,4.5,2.6,4.7,5.2.1.8.4,1.7.3,2.5-.1,1.5-.2,3-.8,4.3-.4.9-1.6,1.6-2.6,2-2.3,1-4.9,1-8.4-.1.3-.4.5-.8.9-1,.9-.5,1.1-1.3,1.2-2.2,0-2.1.2-4.2.2-6.3,0-.5-.4-1.1-.8-1.5-1.5-1.5-1.5-2,.1-3.3.4-.3.8-1,.8-1.5.1-1.9.1-3.8,0-5.7,0-.5-.4-1-.7-1.6s-.6-1.2-.9-1.8c.1.3,0,.3-.1.3Zm8.7,19.2c0-2.6-.8-4-2.6-4.6-1.3-.4-1.9,0-1.9,1.3-.1,2.2-.2,4.4-.2,6.6,0,1,.6,1.1,1.4,1,2-.3,3.3-2,3.3-4.3Z"/>
      <path class="cls-1" d="m72.88,22.54q-2.2-.3-2.7,1.6c-.4,1.6-.8,3.3-1.3,4.9-.8,2.7-3,3.3-5.3,1.6-1.4-1.1-1.7-2.6-2.2-4.1-.3-.9.1-1.9,1.1-2.2,1.1-.3,1.3.7,1.7,1.5.4.9,1.1,1.6,1.6,2.4.6-.8,1.3-1.5,1.9-2.3.2-.2.2-.5.3-.8.5-2.2.4-2.4-1.9-2.6-1.7-.2-2-.5-1.7-2,.2-.7.5-1.1,1.3-1,.8,0,1.7.1,2.5,0,.4-.1,1-.6,1.1-1,.5-3.3.9-6.7,1.3-10,.1-1-.7-.9-1.2-1-.6-.1-1.2,0-1.4-.9-.3-1.5-.1-1.7,1.4-1.7,2.2.1,4.4,0,6.6.1.5,0,1.2.3,1.5.7.6.8.1,1.6-1,1.8q-2,.5-2,2.6c.1,2.8.3,5.5.3,8.3,0,.8.4,1.1,1.1,1h1.2c.9,0,1.7.1,1.5,1.4-.2,1.2-.6,1.5-1.8,1.4-.4,0-.7-.1-1.1-.1-1-.1-1.4.3-1.3,1.4.1,1.2.2,2.5.2,3.8,0,.7.2,1.2,1,1.2.5,0,1.1.1,1.5.4.4.2.8.6.8,1s-.3,1-.7,1.1c-2,.8-4,.4-5.9-.2-.8-.3-.5-1.3.1-1.6,2-.9,1.6-2.6,1.5-4.1,0-.9,0-1.7,0-2.6Zm-1.6-5.2h0c0,.4-.1.7,0,1.1s.4.9.5,1.3c.4-.4,1-.7,1.1-1.2.2-1,.2-2.1.1-3.1,0-.3-.5-.6-.8-1-.3.3-.7.5-.8.9-.1.6-.1,1.3-.1,2Z"/>
      <path class="cls-1" d="m89.48,5.44c2.6,3,3.1,6.3.9,7.4-.1-1-.2-1.8-.2-2.7,0-1.2-.6-1.8-1.8-2-.1.2-.3.4-.2.5.3,2.4-.8,4.5-1.6,6.7-.2.6-.2,1.4,0,2.1,1,2.5,2,4.9,3.1,7.3.2.5.6,1,1,1.3,1.5,1.1,2.1,1.5,2.5-.8,0-.3.4-.5.6-.8.3.3.7.6.7,1,.3,1.6-.9,3.8-2.3,4.5-1.2.6-2.5.3-3.1-1.1-1.3-2.9-2.4-5.9-3.7-8.9-.2-.5-.8-1-1.2-1.4-.2.6-.5,1.2-.6,1.8-.1.5.1,1.1.1,1.7.1,1.5.3,3.1.3,4.6,0,.9.1,1.5,1.2,1.6,1,.1,1.6.6,1.4,1.7-.1,1.1-.8,1.7-1.9,1.8h-3.1c-.7,0-1.4,0-1.6-.8-.2-.8-.5-1.7.4-2.2,1.3-.7,1.3-1.7,1.2-3-.1-2.2-.1-4.4-.1-6.6,0-.8-.2-1-1-.9-.2,0-.4.1-.5,0-.4-.2-.7-.5-1.1-.7.3-.4.6-1,.9-1,1.5-.1,1.6-.9,1.5-2.1-.1-1.7-.1-3.4,0-5.1,0-.7-.2-1.1-.8-1.3s-1.2-.5-1.1-1.4c.1-.9.6-1.4,1.4-1.5,1.6-.2,3.2-.3,4.8-.4.2,0,.6.4.6.7.1.9-.2,1.7-1.2,2-.9.3-1,.8-1,1.7,0,1.7-.1,3.4-.1,5.1,0,.5.2,1.1.6,1.6,2.1-3.2,2.4-7.3,5-10.4Z"/>
      <path class="cls-1" d="m44.08,5.44c1.9-.4,3.5-.8,5.4-.3-.1.3-.1.5-.2.6-1.4,1.1-1.3,2.6-1,4.1.1.9.2,1.8.2,2.7,0,1.7-.1,3.4,1.8,4.6-2.1,1.2-1.7,3-1.7,4.8,0,1.9,0,3.7.2,5.6.1.6.5,1.3.9,1.7.8.6,1.1,1.4.7,2.2-.2.5-1.1.8-1.7.9-.9.1-1.9.1-2.8,0-.4-.1-1-.4-1.1-.7-.2-.7-.6-1.8.5-2.1,1.5-.5,1.5-1.5,1.5-2.8-.1-2.3-.1-4.6-.1-6.8,0-1-.3-1.4-1.3-1.4h-5.8c-.6,0-1.1,0-1,.8.1,2.8.1,5.5.1,8.3,0,1.2.1,2,1.6,2,1,0,1.2.7,1.2,1.6s-.6,1-1.3,1c-1,0-2.1.1-3.1.2-.9.1-1.4-.1-1.7-1.1-.4-1.1-.3-1.7.9-2,.4-.1.9-.9.9-1.3.1-2.6,0-5.2,0-7.8,0-1-.4-1.5-1.3-1.7-.3-.1-.7-.3-.8-.5s.2-.7.4-.8c1.8-.8,1.7-2.2,1.6-3.8-.2-1.6,0-3.2.1-4.9,0-.7-.1-1.2-.8-1.6-.3-.1-.5-.6-.8-.9.4-.3.7-.7,1.1-.8,1.1-.1,2.1-.1,3.2-.1.3,0,.8.3.8.5.1.3-.1.9-.4,1-1.4.6-1.3,1.7-1.3,2.9,0,1.8-.1,3.6,0,5.5,0,.9.5,1.4,1.5,1.4,1.7-.1,3.4-.3,5.1-.4.8-.1,1.1-.5,1-1.3-.2-1.9-.3-3.8-.4-5.7-.1-1-.1-2-1.3-2.6-.4-.2-.5-.6-.8-1Z"/>
      <path class="cls-1" d="m13.28,17.34c.4-.4.9-.8,1.1-1.3,1.3-3.1,2.5-6.2,3.7-9.3.3-.8.8-1.7,1.7-1.5.7.2,1.5.9,1.7,1.6.3,1.1.1,2.3,0,3.5,0,.4-.7.6-1,1-.3-.4-.7-.8-.8-1.3-.1-.4.1-.8.1-1.2-.1-.3-.3-.6-.5-.9-.3.2-.6.3-.7.5-.5,1.3-1,2.6-1.5,3.9s-1,2.7-1.4,4c-.1.4,0,1,.2,1.4.5,1.1,1.3,2.1,1.7,3.3.9,2.4,1.7,4.9,2.5,7.4,1.9-.4,1.8-2.4,3.2-3.6.1.8.3,1.4.2,1.8-.5,1.4-1,2.8-1.8,4-.8,1.3-1.9,1.3-2.9,0-1.5-2-2.2-4.3-2.8-6.7-.3-1.6-.9-3.1-1.3-4.6-1.6.1-2.3.8-2.3,2,.1,2.4.2,4.7.4,7.1,0,.3.5.7.8.9.9.5,1.1,1.2.8,2-.3.9-1,.6-1.6.6-1.2-.1-2.5-.1-3.7-.3-.4,0-1-.4-1-.6,0-.5.2-1.1.6-1.4.4-.4,1.1-.4,1.8-.6v-8.6c0-.3-.4-.6-.7-.8s-.8-.3-1.6-.5c.7-.5,1.1-.8,1.5-1.2.3-.3.8-.7.8-1.1.1-2.9.1-5.9.2-8.8,0-.7-.2-1.1-1-1.3-.5-.2-.9-.7-1.3-1,.1-.1.2-.3.2-.4h6c.2,0,.6.4.6.6,0,.3-.3.7-.6.8-1.5.4-1.7,1.3-1.6,2.7,0,2.2-.2,4.5-.3,6.7v1.3c.4-.3.5-.2.6-.1Z"/>
      <path class="cls-1" d="m25.48,29.74c0-.9.1-1.7,0-2.5-1.1-5.2-1.1-10.4-.3-15.6.3-2.3,1.6-4.1,2.9-5.9.7-.9,2.2-.8,3.1.2,1.6,1.7,2.4,3.7,2.4,6,.1,4.6.1,9.3,0,13.9,0,1.9-.9,3.6-2,5.2s-2.9,1.5-4.5,0c-.5-.5-1.1-.9-1.6-1.3Zm6.2-10.1h0c0-3.5-.2-7-.3-10.5,0-.8-.3-1.4-1.2-1.6s-1.6,0-2.1.8c-.9,1.3-1.4,2.6-1.4,4.2.1,2.8.1,5.7.2,8.5.1,2.1-.6,4.3.4,6.4.1.1,0,.3,0,.5-.1,1.4.1,1.6,1.5,1.7h1.6c1,.1,1.3-.3,1.3-1.3v-8.7Z"/>
      <path class="cls-1" d="m63.78,9.84c-.4-.5-.7-1-1.1-1.4-.3-.3-.7-.6-1-.7-2.3-.5-2.5-.3-2.5,2v17.5c0,1.2.3,2.1,1.4,2.7.6.3,1.4.7.9,1.9-2.3-.3-4.7-.5-7.2-.8-.1-.2-.1-.4-.2-.5.5-.4.9-.9,1.4-1.1.8-.3,1-.7,1-1.6-.1-6.1-.1-12.2-.1-18.3,0-1.9-.8-2.6-2.7-1.9-.3.1-.7.4-1,.4-.5.1-1.1.1-1.7.2.1-.8.1-1.6.4-2.3.2-.4,1-.6,1.5-.6.6-.1,1.3-.1,1.8.1,2.7.8,5.4.6,8.1.5.9-.1,1.3.2,1.3,1.1v2.6c-.1.1-.2.2-.3.2Z"/>
      <path class="cls-1" d="m120.38,31.74h-5.5c.5-.7.7-1.4,1.2-1.8.8-.6,1-1.3.9-2.2-.3-5.7-.5-11.4-.7-17,0-.6.1-1.2,0-1.8-.1-.4-.3-.8-.5-1.2-.2-.5-.6-.9-.7-1.5-.2-.7.2-1.1,1-1.2,1,0,2-.1,3-.1.3,0,.7.3.8.5.1.9.6,1.8-.5,2.6-.3.2-.6.7-.6,1-.1,2.9-1,5.8-.2,8.8.4,1.6.2,3.4.3,5.1,0,1.2.1,2.4,0,3.7-.1,1.6-.3,3.2,1.3,4.3.1.1.2.3.2.4.1,0,0,.1,0,.4Z"/>
    </g>
  </g>
</svg>