<?xml version="1.0" encoding="UTF-8"?>
<svg id="_Слой_2" data-name="Слой 2" xmlns="http://www.w3.org/2000/svg" viewBox="0 0 129.85 39.23">
  <defs>
    <style>
      .cls-1 {
        fill: #fff;
      }
    </style>
  </defs>
  <g id="_Слой_1-2" data-name="Слой 1">
    <g>
      <g>
        <path d="m120.99,37.9H8.59c-4.4,0-8-3.6-8-8V9.7C.59,5.3,4.19,1.7,8.59,1.7h112.4c4.4,0,8,3.6,8,8v20.2c0,4.4-3.6,8-8,8Z"/>
        <path d="m120.99,38c-26.3,0-52.6,1.7-78.8,1.1-7.8-.2-24.4-.5-32-.7C4.69,38.9-.21,34.8.19,29.1v-2.5c0-3.3-.1-11.6-.1-14.8C-.61,6.1,2.59,1,8.69.8,34.99.2,61.29,0,87.49,0c9.9.1,19.7.1,29.6.3,1.4.1,3.5,0,5.1.2,1.9.3,3.6,1.1,4.9,2.4,2,1.8,3,4.7,2.7,7.4l-.1,2.5-.3,9.9c-.3,3.3.3,6.7-.7,9.9-1.1,3.2-4.3,5.5-7.7,5.4h0Zm0-.3c3.3,0,6.3-2.2,7.3-5.3.8-3.1.2-6.5.3-9.7l-.3-9.9c-.1-1.3,0-3.5-.3-4.7-.4-1.4-1.2-2.7-2.3-3.6-2.3-2.2-5.7-1.6-8.7-1.5-3.3.1-6.6.1-9.9.2-19.7.3-39.4.1-59.1,0-13.1-.1-26.3-.3-39.4-.6-3-.1-5.9,1.9-6.9,4.7-.6,1.5-.5,3.1-.5,4.7v4.9l-.1,9.9c0,1.4-.1,3.5.2,4.8.9,4.1,4.9,6.3,8.9,5.8h2.5c6.2-.1,23.2-.5,29.6-.6,26.1-.7,52.4.9,78.7.9h0Z"/>
      </g>
      <path class="cls-1" d="m77.09,14.5c-.7,1.9-1.3,3.7-2.1,5.5-1.6,4.1-3.3,8.1-5,12.2-.2.4-.8.8-1.3.8-1.1.1-2.3.1-3.5-.1-.4-.1-.8-.6-1.2-1,.3-.4.6-1,1-1,1.6-.1,2-1,2.1-2.4.1-5.1.3-10.1.5-15.2,0-1.5,0-3.1.1-4.6,0-.7-.1-1-.9-1.1-.4,0-.7-.5-1-.8.4-.2.7-.6,1.1-.6,1.5-.1,3.1-.1,4.6,0,.4,0,.8.5,1.2.7-.3.4-.6,1-1,1.1-1,.2-1.1.7-1.1,1.6.1,3,.1,6.1,0,9.1,0,.7-.4,1.4-.4,2.1,0,.5.2,1.3.6,1.5.7.4,1-.3,1.2-.8,1.8-4.5,3.5-9.1,5.3-13.6.2-.6.6-1.6,1-1.7,1-.2,2.2-.2,3.2.1s1.1,1.5.1,2.1c-1.2.6-1.2,1.4-1.2,2.5,0,6.1,0,12.1-.1,18.2,0,.9.1,1.6,1.1,2,.4.2.6.9.9,1.4-.4.2-.9.6-1.3.6-1.3.1-2.6,0-4-.1-.3,0-.8-.2-.9-.4-.1-.3.1-.8.4-.9,1.5-.7,1.3-1.9,1.4-3.2.1-3.8.2-7.6.3-11.3,0-.9-.2-1.8-.2-2.7-.5.1-.7.1-.9,0Z"/>
      <path class="cls-1" d="m99.39,30.3c.8,0,1.6-.1,2.5-.1,0,.4.1.7.1,1q.4,1.9-1.6,1.9c-1.1,0-2.2,0-3.3-.2-.5-.1-1.2-.6-1.2-.9-.1-.6.2-1.5.6-1.8,1.3-.7,1.4-1.7,1.3-3-.1-1.6-.1-3.2-.1-4.8,0-1-.4-1.5-1.4-1.4-1.7.1-3.4.3-5.1.3-2.5.1-2.5,0-2.6,2.5-.1,1,.1,2.1.2,3.1,0,.2.1.5.1.7-.5,1.8,0,3.1,1.9,3.7.2.1.4.7.3,1s-.5.7-.8.7c-1.6.1-3.3.2-4.9.2-.3,0-.7-.8-.7-1.2-.1-.6-.4-1.6.8-1.5,1.4.1,1.5-.4,1.3-1.7-.2-1.9-.2-3.9-.1-5.8,0-.8-.2-1.1-1-1.3-.5-.1-1.2-.3-1.5-.7-.5-.6-.2-1.6.7-1.8,1.6-.3,1.7-1.1,1.7-2.5-.1-2.5.1-5,.1-7.4,0-.2,0-.3-.1-.5-.4,0-.7,0-1.1-.1-1-.1-1.1-.8-1.1-1.6,0-.9.6-.8,1.2-.8,1.1,0,2.2-.1,3.2,0,.6,0,1.2.3,1.8.4.1.2.2.4.3.6-.5.3-.9.6-1.5.9-1.1.4-1.1,1.2-1.1,2.2.1,2.4.1,4.7.2,7.1,0,.8.3,1.4,1.1,1.7,1.5.5,3,.6,4.6-.1.8-.4,1.8-.3,2.6-.5.3-.1.8-.6.7-.9,0-2.5-.1-5-.3-7.6-.1-.6-.6-1.2-.9-1.9-.2-.5-.5-1-.7-1.4.5-.2.9-.5,1.4-.5,1.2-.1,2.3-.1,3.5,0,.6,0,1.2.3,1.8.5v.4c-.6.4-1.2.7-1.8,1.2-.3.2-.6.6-.6.9,0,1.4,0,2.9.1,4.3v1.9c-.1,1.4.2,2.6,1.8,2.9.3.1.6.5.6.8s-.4.7-.7.7c-1.3.3-1.6,1.2-1.6,2.4,0,1.5.1,3.1.1,4.6,0,1.1.3,2.3-1.1,3,.2.2.3.3.3.4Z"/>
      <path class="cls-1" d="m109.09,23.6c-.6-.1-1.2-.1-1.7-.3-.6-.2-1.4-.5-1.7-1-.7-1.1-.2-1.9,1.2-1.9,3.7.1,3,.4,3.6-3.2.4-2.7,1-5.3,1.5-8.1-.5-.1-1.2-.2-1.9-.3s-1-.5-.9-1.2c.1-.6,0-1.3,1.1-1.3,2.3.1,4.5,0,6.8,0,.8,0,1,.4,1.1,1,0,.6,0,1.2-.8,1.2-1.2,0-1.4.7-1.3,1.7.2,2.8.3,5.7.5,8.5.1,1.3.4,2.5,2.2,2.5.4,0,.7.5,1.1.8-.3.4-.6.9-1,1.1-.5.4-1.4.4-1.6.9s.1,1.3.2,1.9c.1.9.4,1.8.4,2.8,0,1.4.7,1.7,1.8,1.6.8,0,1.2.2,1.3,1.1.1,1.4.1,1.6-1.4,1.7-1.6.1-3.1.1-4.7.1-.4,0-1.2-.3-1.2-.5,0-.5.2-1.1.5-1.5.2-.3.7-.5,1-.8.2-.2.6-.6.5-.9-.3-1.8-.6-3.5-.9-5.3-.2-1-1-1.1-1.8-1-.9.1-1.3.5-1.4,1.4-.3,1.6-.7,3.2-1.2,4.7-.7,2-2.4,3.1-4.1,2.7-1.6-.3-3.1-2.4-3-4.2,0-.5.5-1.1.8-1.6h.4c.4.7.7,1.4,1.2,2,.4.5,1.2,1.3,1.6,1.1.6-.2,1.2-1,1.3-1.6.2-1.1.3-2.5.5-4.1Zm5.2-8.9c-.1,0-.3-.1-.4-.1-.3.3-.8.5-.9.8-.3,1.5-.6,2.9-.7,4.4,0,.3.7.7,1.1.8.3.1,1-.3,1-.5,0-1.8-.1-3.6-.1-5.4Z"/>
      <path class="cls-1" d="m24.39,28.8c.4-1.1.7-2,1.1-3,1,.9.8,1.8.8,2.8-.1,1.4-1.5,3-2.9,3.3-1.5.3-2.6-.2-3.4-2-1.3-2.7-2.5-5.5-3.9-8.2-.3-.7-.9-1.2-1.6-2-.7,1.9-.5,3.5-.3,5,.1,1,.2,2.1,0,3.1-.2,1.5,0,2,1.5,2.1.9.1,1.6.4,1.6,1.4s-.3,1.9-1.6,1.9c-1.7,0-3.3.1-5,0-.5,0-1.2-.7-1.3-1.2s.3-1.4.7-1.7c1.7-1.1,1.7-1,1.5-3.1s-.2-4.3-.2-6.4c0-.8-.2-1-1-.9-.2,0-.4,0-.6.1-.6.1-1.3,0-1.2-.8,0-.4.7-.9,1.1-.9,1.4,0,1.6-.7,1.6-1.8-.1-1.9-.1-3.8,0-5.7,0-.7-.3-.8-.9-.8-.8,0-1.4-.2-1.4-1.1s.2-1.7,1.4-1.8c1.9-.1,3.9-.3,5.8-.4.3,0,.8.5.8.8.2,1.2-.7,1.8-1.7,2-1.1.3-1.2.8-1.2,1.8.1,1.7,0,3.4,0,5.1,0,.5.1,1,.1,1.5.1.1.2.1.4.2.4-.4.9-.7,1.1-1.1.6-1.2,1.1-2.4,1.6-3.7.7-1.6,1.4-3.3,2.2-4.9.7-1.4,1.1-1.3,2.1-.2,1.5,1.6,1.6,3.4,1.3,5.4,0,.3-.4.7-.6,1-.3-.3-.8-.5-.9-.9-.2-.8-.2-1.6-.3-2.4-.1-.7-.3-1.2-1.2-1.3-.9-.1-.8.6-.9,1.1-.6,2-1.1,4-1.8,5.9-.3.8-.4,1.5.1,2.3.8,1.4,1.5,2.9,2.3,4.3.3.5.7,1,.7,1.5.4,2.3,2.5,2.7,4.1,3.7Z"/>
      <path class="cls-1" d="m39.29,20.8c-.3,2.7-.7,5.5-1,8.2-.1.5-.4,1.1-.6,1.6-1.3,2.7-2.8,3.4-5.8,2.8-1.2-.3-2.8-2.3-2.9-3.5-.3-2.4-.9-4.7-1.2-7.1-.5-3.7-.3-7.3.9-10.8.7-1.9,2-3.5,3.2-5.1.7-1,2.7-.7,3.7.2,1.8,1.5,2.6,3.5,3,5.7.2,1.1.4,2.3.4,3.4.1,1.6,0,3.2,0,4.7,0-.1.2-.1.3-.1Zm-3,0h-.3v-10.4c0-1.7-1.6-2.5-3.2-1.8-1.5.7-2.8,3.3-2.7,5,.2,3.6.3,7.3.3,11,0,1.3-.7,2.7.3,4,.1.1,0,.4,0,.6,0,1.9.1,1.9,2,2,.3,0,.7,0,1,.1,2,.1,2.5-.3,2.5-2.4.1-2.7.1-5.4.1-8.1Z"/>
      <path class="cls-1" d="m55.99,17.2c3.2-1.5,3.4-4,3.2-6.8-.1-.7-.2-1.5,1-1.5-.9-.9-3.6-1-4.8-.3-1.2.7-1.5,1.8-1.1,3.4.1.6.2,1.2.2,1.9-1.6.3-2.1-.1-2.4-1.3-.6-2.3.8-5.3,2.9-6.2,3.1-1.3,6.4.6,6.6,3.9.1,1.8.4,3.7-1,5.3-.2.2,0,1,.3,1.2,3.8,3.6,4.1,10.9.5,14.8-2.9,3.1-8.7,1.9-10.3-2.2-.3-.7-.5-1.4-.6-2.1-.1-.4.2-.9.3-1.4.5.2,1,.4,1.4.7.3.3.4.8.5,1.2,1.1,2.9,4,3.5,6,1.1.8-.9,1.1-2.2,1.4-3.4.2-.7.1-1.5.2-2.3.2-2.4-.8-4.1-3-5.2-.4-.2-.7-.4-1.3-.8Zm-.8,14.4v.4c1.6,1,2.8.8,3.3-.9-1.1.1-2.2.3-3.3.5Zm5.6-6.7c.2.1.4.1.6.2.1-.4.2-.9.3-1.3,0,0-.4-.1-.6-.2,0,.4-.2.9-.3,1.3Z"/>
      <path class="cls-1" d="m38.69,32.6c.8-.4,1.4-.8,2.1-1,.9-.3,1.4-.7,1-1.8-.3-.7-.3-1.6-.3-2.4.1-5.8.2-11.7.3-17.5,0-.7-.2-1-.9-1-.4,0-.8,0-1.1-.2-.4-.3-.8-.8-.8-1.2,0-.3.6-.8,1-.8,1.8,0,3.6.1,5.4.2,2.8.2,6.1,2.4,5.9,6.3-.1,1.5-.1,2.9-.4,4.4-.6,3-1.9,4.2-4.9,4.6q-2.1.3-2.1,2.4c0,1.9,0,3.7-.2,5.6-.1,1.3.7,1.3,1.6,1.3s1.6.2,1.6,1.2c0,.3-.5.9-.7.9-2.3,0-4.5-.2-6.8-.3-.2-.1-.3-.3-.7-.7Zm4.9-19.7c.1,1.8.2,3.5.3,5.2.1,1.5.5,1.9,2,1.6.5-.1,1.1-.4,1.5-.7,2.1-1.5,3.1-5,2-7.5-.4-1-1.2-1.8-2-2.6-.9-.9-2.1-.6-3.1-.2-1,.4-.7,1.3-.7,2.1,0,.7,0,1.5,0,2.1Z"/>
    </g>
  </g>
</svg>